<?xml version="1.0" encoding="UTF-8" standalone="no"?>
<!-- Created with Inkscape (http://www.inkscape.org/) -->

<svg
   xmlns:dc="http://purl.org/dc/elements/1.1/"
   xmlns:cc="http://creativecommons.org/ns#"
   xmlns:rdf="http://www.w3.org/1999/02/22-rdf-syntax-ns#"
   xmlns:svg="http://www.w3.org/2000/svg"
   xmlns="http://www.w3.org/2000/svg"
   xmlns:sodipodi="http://sodipodi.sourceforge.net/DTD/sodipodi-0.dtd"
   xmlns:inkscape="http://www.inkscape.org/namespaces/inkscape"
   version="1.1"
   id="svg4534"
   xml:space="preserve"
   width="816"
   height="1056"
   viewBox="0 0 816 1056"
   sodipodi:docname="sketch.svg"
   inkscape:version="0.92.5 (2060ec1f9f, 2020-04-08)"><metadata
     id="metadata4540"><rdf:RDF><cc:Work
         rdf:about=""><dc:format>image/svg+xml</dc:format><dc:type
           rdf:resource="http://purl.org/dc/dcmitype/StillImage" /><dc:title></dc:title></cc:Work></rdf:RDF></metadata><defs
     id="defs4538"><clipPath
       clipPathUnits="userSpaceOnUse"
       id="clipPath4556"><path
         d="m 59.14286,72 h 493.7143 V 720 H 59.14286 Z"
         id="path4554"
         inkscape:connector-curvature="0" /></clipPath></defs><sodipodi:namedview
     pagecolor="#ffffff"
     bordercolor="#666666"
     borderopacity="1"
     objecttolerance="10"
     gridtolerance="10"
     guidetolerance="10"
     inkscape:pageopacity="0"
     inkscape:pageshadow="2"
     inkscape:window-width="1920"
     inkscape:window-height="1001"
     id="namedview4536"
     showgrid="false"
     inkscape:zoom="1.8101934"
     inkscape:cx="563.69193"
     inkscape:cy="712.86242"
     inkscape:window-x="-9"
     inkscape:window-y="-9"
     inkscape:window-maximized="1"
     inkscape:current-layer="g4552" /><g
     id="g4542"
     inkscape:groupmode="layer"
     inkscape:label="sketch"
     transform="matrix(1.3333333,0,0,-1.3333333,0,1056)"><g
       id="g4544" /><g
       id="g4546"><g
         id="g4548"
         transform="matrix(0.8707483,0,0,0.8707483,72,720)" /></g><g
       clip-path="url(#clipPath4556)"
       id="g4552"><path
         inkscape:connector-curvature="0"
         id="path4558"
         style="fill:#000000;fill-opacity:1;fill-rule:nonzero;stroke:none"
         d="m 141.4479,536.8364 c 0,53.445 28.9164,100.1364 71.9577,125.2819 21.4478,12.5303 46.4028,19.7108 73.035,19.7108 53.445,0 100.1364,-28.9164 125.282,-71.9577 12.5302,-21.4478 19.7107,-46.4029 19.7107,-73.035 0,-53.4451 -28.9164,-100.1365 -71.9577,-125.282 -21.4478,-12.5302 -46.4028,-19.7107 -73.035,-19.7107 -53.4451,0 -100.1364,28.9163 -125.282,71.9577 -12.5302,21.4478 -19.7107,46.4028 -19.7107,73.035 m 1.2857,0 c 0,-26.3956 7.1162,-51.1291 19.5352,-72.3865 24.9227,-42.6599 71.2002,-71.3205 124.1718,-71.3205 26.3956,0 51.1291,7.1162 72.3864,19.5351 42.6599,24.9227 71.3206,71.2002 71.3206,124.1719 0,26.3955 -7.1162,51.1291 -19.5352,72.3864 -24.9227,42.6599 -71.2002,71.3205 -124.1718,71.3205 -26.3956,0 -51.1291,-7.1162 -72.3864,-19.5351 -42.66,-24.9227 -71.3206,-71.2002 -71.3206,-124.1718" /><path
         inkscape:connector-curvature="0"
         id="path4560"
         style="fill:#000000;fill-opacity:1;fill-rule:evenodd;stroke:none"
         d="m 184.0319,621.5129 c -2.4246,-0.7587 -4.7075,-1.6637 -6.8357,-2.7172 0.003,0.4618 8e-4,0.9229 -0.0138,1.3416 2.194,1.0676 4.5424,1.9806 7.0332,2.742 -0.0615,-0.4399 -0.1245,-0.9011 -0.1837,-1.3664" /><path
         inkscape:connector-curvature="0"
         id="path4562"
         style="fill:#000000;fill-opacity:1;fill-rule:evenodd;stroke:none"
         d="m 220.8165,623.5411 c -2.8263,0.3524 -5.5903,0.6089 -8.285,0.7685 0.0523,0.4409 0.0933,0.8717 0.1153,1.2806 2.7904,-0.1665 5.6547,-0.436 8.5849,-0.8073 -0.1268,-0.3896 -0.2689,-0.8089 -0.4152,-1.2418" /><path
         inkscape:connector-curvature="0"
         id="path4564"
         style="fill:#000000;fill-opacity:1;fill-rule:evenodd;stroke:none"
         d="m 273.2665,608.6301 c -3.1892,1.3524 -6.3577,2.6207 -9.4991,3.8041 0.1762,0.405 0.3445,0.8012 0.504,1.1809 3.1983,-1.2054 6.4244,-2.4983 9.6717,-3.8776 -0.1545,-0.2482 -0.3205,-0.5172 -0.4906,-0.7978 -0.0612,-0.1012 -0.1234,-0.2046 -0.186,-0.3096" /><path
         inkscape:connector-curvature="0"
         id="path4566"
         style="fill:#000000;fill-opacity:1;fill-rule:evenodd;stroke:none"
         d="m 283.5444,604.0128 c -2.4421,1.1585 -4.8762,2.2695 -7.2995,3.3326 0.2429,0.3999 0.4778,0.776 0.6827,1.1025 2.4118,-1.0597 4.8341,-2.1666 7.2641,-3.3203 -0.2215,-0.3706 -0.4349,-0.7403 -0.6473,-1.1148" /><path
         inkscape:connector-curvature="0"
         id="path4568"
         style="fill:#000000;fill-opacity:1;fill-rule:evenodd;stroke:none"
         d="m 305.3436,592.4997 c -0.2277,0.1327 -0.4555,0.265 -0.6832,0.3969 -2.2049,1.2769 -4.4097,2.5168 -6.6126,3.7192 0.047,0.0634 0.0935,0.1271 0.1393,0.191 0.0362,0.0431 0.0706,0.0884 0.1028,0.136 0.0284,0.042 0.0545,0.0847 0.0784,0.1282 0.1335,0.2023 0.2654,0.4117 0.3912,0.6209 2.1805,-1.1911 4.3629,-2.4188 6.5452,-3.6827 0.2389,-0.1383 0.4777,-0.277 0.7165,-0.4162 -0.1955,-0.3426 -0.4155,-0.6988 -0.6776,-1.0933" /><path
         inkscape:connector-curvature="0"
         id="path4570"
         style="fill:#000000;fill-opacity:1;fill-rule:evenodd;stroke:none"
         d="m 324.3914,580.449 c -1.9966,1.3671 -4.022,2.7193 -6.0754,4.0555 0.3203,0.3549 0.6154,0.6926 0.8463,0.9832 1.9835,-1.2923 3.941,-2.5995 5.8717,-3.9205 -0.2171,-0.369 -0.4323,-0.747 -0.6426,-1.1182" /><path
         inkscape:connector-curvature="0"
         id="path4572"
         style="fill:#000000;fill-opacity:1;fill-rule:evenodd;stroke:none"
         d="m 343.0787,566.5687 c -2.2199,1.7888 -4.4882,3.5621 -6.8031,5.3172 0.1242,0.138 0.2457,0.2758 0.3635,0.4113 0.1659,0.191 0.3266,0.3794 0.4808,0.5619 2.3427,-1.7773 4.6377,-3.573 6.8835,-5.3846 -0.3171,-0.3016 -0.6286,-0.6084 -0.9247,-0.9058" /><path
         inkscape:connector-curvature="0"
         id="path4574"
         style="fill:#000000;fill-opacity:1;fill-rule:evenodd;stroke:none"
         d="m 351.4923,559.5157 c -1.9281,1.6822 -3.8991,3.3541 -5.9116,5.0136 0.3096,0.3099 0.6239,0.6175 0.9271,0.9017 1.9859,-1.6392 3.9314,-3.2905 5.8353,-4.9517 -0.1485,-0.1627 -0.295,-0.3264 -0.4376,-0.4884 -0.0684,-0.0752 -0.0845,-0.0944 -0.1001,-0.114 -0.1056,-0.1208 -0.2102,-0.2415 -0.3131,-0.3612" /><path
         inkscape:connector-curvature="0"
         id="path4576"
         style="fill:#000000;fill-opacity:1;fill-rule:evenodd;stroke:none"
         d="m 400.1832,497.9265 c -1.0039,2.3168 -2.1262,4.6627 -3.3631,7.032 0.3809,0.142 0.7861,0.2998 1.1794,0.4757 1.1976,-2.2969 2.2885,-4.5724 3.2695,-6.8211 -0.1787,-0.1422 -0.4109,-0.293 -0.7271,-0.4801 -0.1152,-0.0688 -0.2351,-0.1377 -0.3587,-0.2065" /><path
         inkscape:connector-curvature="0"
         id="path4578"
         style="fill:#000000;fill-opacity:1;fill-rule:evenodd;stroke:none"
         d="m 403.9929,487.3521 c -0.7034,2.4843 -1.5638,5.017 -2.5757,7.5897 0.2221,0.1178 0.438,0.2369 0.644,0.3562 0.0435,0.0208 0.0864,0.0438 0.1287,0.0689 0.0431,0.0256 0.0845,0.0529 0.1243,0.0817 0.0721,0.0442 0.1442,0.0895 0.216,0.1357 1.0169,-2.5659 1.8856,-5.0928 2.6013,-7.5728 -0.1714,-0.0733 -0.3275,-0.1755 -0.4621,-0.3006 -0.0646,-0.0356 -0.1463,-0.0796 -0.2459,-0.1325 -0.1272,-0.0677 -0.2724,-0.1439 -0.4306,-0.2263" /><path
         inkscape:connector-curvature="0"
         id="path4580"
         style="fill:#000000;fill-opacity:1;fill-rule:evenodd;stroke:none"
         d="m 402.2009,452.5478 c -7.8385,-12.0962 -23.3692,-17.9841 -43.4419,-17.9841 -27.4335,0 -63.3455,10.9856 -99.2552,31.7825 -4.4094,2.5538 -8.8189,5.2554 -13.2127,8.1026 -24.151,15.6502 -44.4802,33.5321 -59.5845,51.4125 -18.7899,22.2434 -29.4821,44.4945 -29.4821,62.4729 0,7.2719 1.7412,13.8532 5.3832,19.4734 2.8344,4.3741 6.6748,7.9364 11.372,10.7021 -0.004,-0.3342 -0.0102,-0.6657 -0.0157,-0.9904 -1e-4,-0.1739 -1e-4,-0.3448 -1e-4,-0.5126 -4.213,-2.6005 -7.6812,-5.8921 -10.2773,-9.8983 -3.5112,-5.4184 -5.1764,-11.7662 -5.1764,-18.7742 0,-17.7549 10.6383,-39.6952 29.1786,-61.6432 15.032,-17.7948 35.2664,-35.5882 59.3015,-51.1633 4.3756,-2.8353 8.7667,-5.5257 13.1579,-8.0689 35.6766,-20.6619 71.3509,-31.6094 98.6108,-31.6094 19.5133,0 34.7191,5.6018 42.3629,17.3976 1.211,1.8687 2.2024,3.848 2.9817,5.9268 0.534,0.2501 1.0698,0.5192 1.5497,0.7886 0.084,0.0457 0.0982,0.0541 0.1121,0.0626 -0.8681,-2.6451 -2.0525,-5.144 -3.5645,-7.4772" /><path
         inkscape:connector-curvature="0"
         id="path4582"
         style="fill:#000000;fill-opacity:1;fill-rule:evenodd;stroke:none"
         d="m 405.65,464.7615 c 0.3891,2.0815 0.6009,4.2406 0.6413,6.4685 0.4381,0.1841 0.8831,0.3774 1.2923,0.5666 -0.0126,-2.5416 -0.2389,-4.9981 -0.6858,-7.3579 -0.3593,0.1563 -0.808,0.2679 -1.2478,0.3228" /><path
         inkscape:connector-curvature="0"
         id="path4584"
         style="fill:#000000;fill-opacity:1;fill-rule:evenodd;stroke:none"
         d="m 406.2133,474.8117 c -0.1814,3.0126 -0.651,6.1343 -1.3966,9.346 0.3485,0.1815 0.6958,0.3609 0.9886,0.5152 0.0436,0.0185 0.0867,0.0391 0.1293,0.0617 0.7748,-3.0791 1.2727,-6.0907 1.5021,-9.0078 -0.5557,-0.0823 -1.0032,-0.4402 -1.2234,-0.9151" /><path
         inkscape:connector-curvature="0"
         id="path4586"
         style="fill:#000000;fill-opacity:1;fill-rule:evenodd;stroke:none"
         d="m 395.2799,507.8144 c -1.043,1.8748 -2.1558,3.7625 -3.3364,5.6603 0.3433,0.2652 0.679,0.536 0.9884,0.7958 1.2571,-2.0126 2.4384,-4.0144 3.5419,-6.002 -0.2267,-0.0926 -0.4795,-0.1878 -0.7562,-0.2907 -0.0755,-0.0269 -0.0943,-0.0343 -0.1129,-0.0419 -0.1056,-0.0393 -0.2141,-0.0797 -0.3248,-0.1215" /><path
         inkscape:connector-curvature="0"
         id="path4588"
         style="fill:#000000;fill-opacity:1;fill-rule:evenodd;stroke:none"
         d="m 390.2082,516.1965 c -1.1348,1.7379 -2.3251,3.483 -3.5697,5.2332 0.3687,0.242 0.7335,0.4689 1.0638,0.6633 1.2122,-1.7023 2.3732,-3.4002 3.4817,-5.0915 -0.2839,-0.2477 -0.6159,-0.5223 -0.9758,-0.805" /><path
         inkscape:connector-curvature="0"
         id="path4590"
         style="fill:#000000;fill-opacity:1;fill-rule:evenodd;stroke:none"
         d="m 384.7496,524.0336 c -1.4954,2.0218 -3.0619,4.0488 -4.6973,6.0778 0.3642,0.2635 0.6763,0.4797 0.9463,0.6318 0.0318,0.0146 0.0634,0.0303 0.0946,0.0471 1.6414,-2.0322 3.2133,-4.0627 4.7138,-6.0882 -0.3431,-0.2073 -0.7035,-0.4347 -1.0574,-0.6685" /><path
         inkscape:connector-curvature="0"
         id="path4592"
         style="fill:#000000;fill-opacity:1;fill-rule:evenodd;stroke:none"
         d="m 378.0115,532.6015 c -0.2951,0.3543 -0.5924,0.7086 -0.8917,1.0629 -1.8833,2.2294 -3.8482,4.4588 -5.892,6.6838 0.6037,0.4869 1.0066,0.7865 1.0372,0.7116 2.0548,-2.1813 3.9852,-4.3735 5.837,-6.5657 0.327,-0.3871 0.6516,-0.7742 0.9736,-1.1613 -0.3535,-0.2233 -0.7162,-0.4786 -1.0641,-0.7313" /><path
         inkscape:connector-curvature="0"
         id="path4594"
         style="fill:#000000;fill-opacity:1;fill-rule:evenodd;stroke:none"
         d="m 369.0585,542.6768 c -2.0913,2.2137 -4.26,4.4215 -6.5034,6.6192 0.0945,0.0813 0.1883,0.1629 0.2809,0.2442 0.0344,0.026 0.0679,0.0536 0.1006,0.0827 0.0311,0.0277 0.0608,0.0563 0.0892,0.0857 0.1662,0.1488 0.3301,0.2975 0.4904,0.4453 2.2799,-2.2349 4.4829,-4.4802 6.6063,-6.7315 -0.3482,-0.2232 -0.7051,-0.4765 -1.064,-0.7456" /><path
         inkscape:connector-curvature="0"
         id="path4596"
         style="fill:#000000;fill-opacity:1;fill-rule:evenodd;stroke:none"
         d="m 360.2347,551.54 c -2.0526,1.9597 -4.1642,3.9101 -6.3329,5.8481 0.1197,0.1393 0.2411,0.2794 0.3635,0.4189 0.1641,0.1871 0.3266,0.3699 0.4864,0.5455 2.2102,-1.9749 4.3615,-3.9627 6.4517,-5.9601 -0.1299,-0.1176 -0.2651,-0.2389 -0.4048,-0.3633 -0.1813,-0.1611 -0.371,-0.3252 -0.5639,-0.4891" /><path
         inkscape:connector-curvature="0"
         id="path4598"
         style="fill:#000000;fill-opacity:1;fill-rule:evenodd;stroke:none"
         d="m 333.6943,573.821 c -2.1777,1.6143 -4.395,3.2121 -6.6505,4.7915 0.2175,0.3861 0.4315,0.7687 0.6348,1.125 2.3299,-1.63 4.6192,-3.2798 6.8666,-4.9469 -0.0787,-0.0916 -0.1568,-0.1824 -0.2343,-0.2721 -0.0353,-0.0338 -0.0693,-0.0695 -0.102,-0.1071 -0.0326,-0.0375 -0.0632,-0.0762 -0.0918,-0.1158 -0.1444,-0.1653 -0.2852,-0.3239 -0.4228,-0.4746" /><path
         inkscape:connector-curvature="0"
         id="path4600"
         style="fill:#000000;fill-opacity:1;fill-rule:evenodd;stroke:none"
         d="m 315.5751,586.2678 c -2.4837,1.5795 -4.9715,3.1122 -7.4606,4.5979 0.2169,0.3315 0.4116,0.6441 0.5716,0.9154 0.0371,0.0502 0.0716,0.1031 0.1034,0.1585 2.5026,-1.4782 4.9988,-3.0127 7.4895,-4.5961 -0.0162,-0.1038 -0.0223,-0.2098 -0.0177,-0.3163 -0.2001,-0.2285 -0.4349,-0.4863 -0.6862,-0.7594" /><path
         inkscape:connector-curvature="0"
         id="path4602"
         style="fill:#000000;fill-opacity:1;fill-rule:evenodd;stroke:none"
         d="m 295.1907,598.1551 c -2.9233,1.5541 -5.8415,3.0421 -8.7501,4.4632 0.2154,0.3831 0.415,0.7303 0.5931,1.0162 0.023,0.0244 0.0493,0.0532 0.0782,0.0858 2.9313,-1.4335 5.8723,-2.9345 8.8182,-4.5025 -0.0967,-0.1542 -0.201,-0.3143 -0.3097,-0.4745 -0.1395,-0.2031 -0.2826,-0.399 -0.4297,-0.5882" /><path
         inkscape:connector-curvature="0"
         id="path4604"
         style="fill:#000000;fill-opacity:1;fill-rule:evenodd;stroke:none"
         d="m 260.7514,613.5474 c -3.3748,1.2198 -6.7156,2.34 -10.0142,3.3596 0.1573,0.3864 0.3153,0.7909 0.4544,1.2014 3.3151,-1.026 6.6724,-2.1528 10.0637,-3.3794 -0.164,-0.3899 -0.3321,-0.786 -0.5039,-1.1816" /><path
         inkscape:connector-curvature="0"
         id="path4606"
         style="fill:#000000;fill-opacity:1;fill-rule:evenodd;stroke:none"
         d="m 247.6567,617.8336 c -3.766,1.1012 -7.4728,2.0684 -11.1082,2.9 0.0291,0.0886 0.058,0.1777 0.0867,0.267 0.1008,0.3147 0.2001,0.6405 0.2894,0.9622 3.6879,-0.8458 7.4486,-1.83 11.2694,-2.9509 -0.1561,-0.3395 -0.345,-0.7446 -0.5373,-1.1783" /><path
         inkscape:connector-curvature="0"
         id="path4608"
         style="fill:#000000;fill-opacity:1;fill-rule:evenodd;stroke:none"
         d="m 233.3926,621.4253 c -3.1732,0.6646 -6.2879,1.2229 -9.3356,1.6738 0.1248,0.3677 0.2439,0.7281 0.3495,1.0666 0.0206,0.0533 0.0421,0.1101 0.0641,0.1694 2.7895,-0.4174 5.6345,-0.9239 8.5286,-1.5185 0.1884,-0.2329 0.4246,-0.398 0.6824,-0.4954 -0.0204,-0.0656 -0.0414,-0.1324 -0.0629,-0.2003 -0.0187,-0.0442 -0.0355,-0.0896 -0.0504,-0.1361 -0.0149,-0.0465 -0.0276,-0.0932 -0.0381,-0.14 -0.0448,-0.1381 -0.0908,-0.2782 -0.1376,-0.4195" /><path
         inkscape:connector-curvature="0"
         id="path4610"
         style="fill:#000000;fill-opacity:1;fill-rule:evenodd;stroke:none"
         d="m 209.3724,624.4532 c -1.1208,0.0352 -2.2286,0.0529 -3.3228,0.0529 -2.2669,0 -4.4757,-0.0756 -6.6212,-0.2278 0.0677,0.4863 0.1239,0.9015 0.1681,1.2989 2.0933,0.1434 4.2457,0.2146 6.4531,0.2146 1.1391,0 2.2928,-0.019 3.4606,-0.0568 -0.0178,-0.3647 -0.0688,-0.8004 -0.1378,-1.2818" /><path
         inkscape:connector-curvature="0"
         id="path4612"
         style="fill:#000000;fill-opacity:1;fill-rule:evenodd;stroke:none"
         d="m 196.1203,623.9773 c -3.0546,-0.3414 -5.9669,-0.8493 -8.7206,-1.5265 0.0647,0.4674 0.1288,0.9219 0.1857,1.3457 2.7639,0.6645 5.6811,1.1608 8.7373,1.4922 -0.0269,-0.1922 -0.0564,-0.3919 -0.0881,-0.5977 -0.036,-0.2347 -0.0745,-0.4736 -0.1143,-0.7137" /><path
         inkscape:connector-curvature="0"
         id="path4614"
         style="fill:#ed3624;fill-opacity:1;fill-rule:evenodd;stroke:none;stroke-width:1"
         d="m 351.30159,549.76399 c -5.8219,-6.38834 -11.83876,-11.91277 -17.85375,-16.44158 -12.25157,-9.22458 -24.51481,-14.31308 -35.15809,-14.31308 -4.99696,0 -9.64976,1.11073 -13.80756,3.4202 -10.93047,6.07173 -16.67344,19.51808 -17.00477,37.05895 -0.009,0.54076 -0.0163,1.0855 -0.0163,1.63397 0,18.51944 5.84174,41.31715 17.39307,64.11229 1.10465,2.17942 2.26113,4.35907 3.46969,6.53475 2.31461,4.16667 4.74199,8.179 7.25997,12.02158 0.18213,-0.13286 0.36822,-0.26221 0.55805,-0.38807 0.42916,-0.28439 0.86766,-0.54403 1.31363,-0.77893 0.0738,-0.0801 0.2977,-0.27155 0.60778,-0.52512 -2.46732,-3.76856 -4.8459,-7.70244 -7.11498,-11.78739 -1.19011,-2.14205 -2.32885,-4.28808 -3.41622,-6.43387 -11.30686,-22.31252 -17.06898,-44.62223 -17.06898,-62.75524 0,-0.52956 0.005,-1.05538 0.014,-1.57747 0.30494,-16.15462 5.28976,-28.84119 15.46092,-34.49123 3.71883,-2.06571 7.88339,-3.04241 12.34987,-3.04241 10.11955,0 21.73018,4.95868 33.35226,13.70926 5.96782,4.49333 11.93378,9.98833 17.70104,16.34866 0.16064,-0.23186 0.32852,-0.46021 0.50364,-0.6846 0.44691,-0.57766 0.93374,-1.11889 1.45489,-1.62067" /><path
         inkscape:connector-curvature="0"
         id="path4616"
         style="fill:#000000;fill-opacity:1;fill-rule:nonzero;stroke:none;stroke-width:1"
         d="m 295.48224,639.97184 c -0.49313,-0.49617 -1.29541,-0.49851 -1.79158,-0.005 -0.49594,0.49337 -0.49827,1.29541 -0.005,1.79158 l 5.81932,5.85225 c 0.49337,0.49617 1.29542,0.49827 1.79159,0.005 0.49617,-0.49337 0.49827,-1.29565 0.005,-1.79159 l -5.81956,-5.85224 z" /><path
         inkscape:connector-curvature="0"
         id="path4618"
         style="fill:#000000;fill-opacity:1;fill-rule:nonzero;stroke:none;stroke-width:1"
         d="m 293.88656,645.61114 c -0.47096,0.51742 -0.43313,1.31876 0.0843,1.78972 0.51742,0.47072 1.31876,0.43289 1.78948,-0.0845 l 5.08126,-5.58373 c 0.47072,-0.51742 0.43313,-1.31876 -0.0845,-1.78948 -0.51742,-0.47096 -1.31853,-0.43313 -1.78949,0.0843 z" /><path
         inkscape:connector-curvature="0"
         id="path4620"
         style="fill:#000000;fill-opacity:1;fill-rule:nonzero;stroke:none;stroke-width:1"
         d="m 346.87948,546.14767 c -0.49337,-0.49618 -1.29565,-0.49851 -1.79159,-0.005 -0.49617,0.49336 -0.4985,1.29541 -0.005,1.79158 l 5.81933,5.85225 c 0.49337,0.49594 1.29542,0.49827 1.79159,0.005 0.49617,-0.49337 0.49827,-1.29542 0.005,-1.79159 l -5.81933,-5.85201 z" /><path
         inkscape:connector-curvature="0"
         id="path4622"
         style="fill:#000000;fill-opacity:1;fill-rule:nonzero;stroke:none;stroke-width:1"
         d="m 345.28356,551.78697 c -0.47095,0.51742 -0.43313,1.31876 0.0843,1.78948 0.51742,0.47096 1.31877,0.43313 1.78949,-0.0843 l 5.08125,-5.58373 c 0.47072,-0.51742 0.43313,-1.31876 -0.0845,-1.78972 -0.51742,-0.47072 -1.31853,-0.43313 -1.78948,0.0845 z" /><path
         inkscape:connector-curvature="0"
         id="path4624"
         style="fill:#fa9d00;fill-opacity:1;fill-rule:nonzero;stroke:none;stroke-width:1"
         d="m 326.39614,620.66273 c -2.82338,-3.61025 -7.44466,-5.44153 -13.05945,-5.44153 -5.41562,0 -11.7617,1.70986 -18.10452,5.04086 -2.93826,1.54315 -5.877,3.43327 -8.72116,5.65751 -5.55852,4.34716 -9.96452,9.353 -12.96022,14.35464 -2.98216,4.97945 -4.56454,9.96404 -4.56454,14.32545 0,3.34804 0.91996,6.34491 2.81078,8.76272 2.82339,3.61026 7.4449,5.44154 13.05945,5.44154 5.41562,0 11.7617,-1.70986 18.10452,-5.04086 2.9385,-1.54315 5.877,-3.43327 8.72117,-5.65752 5.55851,-4.34716 9.96474,-9.353 12.96021,-14.35463 2.9824,-4.97946 4.56454,-9.96405 4.56454,-14.32545 0,-3.34804 -0.91996,-6.34468 -2.81078,-8.76273 m -2.36481,1.84949 c 1.49179,1.90763 2.17358,4.28248 2.17358,6.91324 0,3.90165 -1.47683,8.33964 -4.13795,12.783 -2.82595,4.71841 -6.99145,9.43238 -12.23405,13.53227 -2.69637,2.10867 -5.48193,3.90142 -8.26773,5.36448 -5.85365,3.07416 -11.70449,4.69647 -16.7087,4.69647 -4.53792,0 -8.38237,-1.33208 -10.69464,-4.28879 -1.49178,-1.9074 -2.17335,-4.28248 -2.17335,-6.91323 0,-3.90166 1.47661,-8.33965 4.13772,-12.783 2.82595,-4.71841 6.99169,-9.43239 12.23429,-13.53228 2.69637,-2.10866 5.48169,-3.90142 8.26749,-5.36448 5.85388,-3.07416 11.7045,-4.69646 16.7087,-4.69646 4.53792,0 8.3826,1.3323 10.69464,4.28878" /><path
         inkscape:connector-curvature="0"
         id="path4626"
         style="fill:#fa9d00;fill-opacity:1;fill-rule:nonzero;stroke:none;stroke-width:1"
         d="m 352.09383,517.58947 c -0.62343,-0.0717 -1.24522,-0.10671 -1.8642,-0.10671 -7.22729,0 -14.13422,4.82512 -18.69899,12.6324 -2.60344,4.45223 -4.43846,9.85897 -5.11979,15.80135 -0.19263,1.67974 -0.28579,3.3387 -0.28579,4.96544 0,11.83269 4.94653,21.89083 12.30457,26.21347 2.02485,1.18941 4.23532,1.9562 6.58658,2.22588 0.62366,0.0715 1.24545,0.10648 1.8642,0.10648 7.22752,0 14.13445,-4.82489 18.69923,-12.6324 2.6032,-4.45223 4.43845,-9.85874 5.11978,-15.80112 0.19263,-1.67974 0.2858,-3.3387 0.2858,-4.96568 0,-11.83245 -4.94654,-21.89059 -12.30481,-26.21323 -2.02461,-1.18941 -4.23508,-1.95643 -6.58658,-2.22588 m -0.34183,2.98239 c 1.93144,0.22135 3.74521,0.85529 5.40791,1.83198 6.63141,3.89559 10.8233,13.0744 10.8233,23.62474 0,1.5149 -0.0869,3.05969 -0.26619,4.62362 -0.63066,5.49921 -2.31927,10.50668 -4.72891,14.62805 -3.93224,6.72528 -9.80107,11.14552 -16.1077,11.14552 -0.50527,0 -1.01288,-0.0287 -1.52213,-0.0871 -1.93145,-0.22135 -3.74545,-0.85504 -5.40791,-1.83174 -6.63165,-3.89582 -10.8233,-13.07463 -10.8233,-23.62498 0,-1.51489 0.0869,-3.05945 0.26618,-4.62361 0.63043,-5.49921 2.31904,-10.50645 4.72892,-14.62805 3.93224,-6.72528 9.80083,-11.14552 16.10746,-11.14552 0.50551,0 1.01312,0.0287 1.52237,0.0871" /><path
         inkscape:connector-curvature="0"
         id="path4628"
         style="fill:#000000;fill-opacity:1;fill-rule:nonzero;stroke:none;stroke-width:1"
         d="m 299.3804,642.25726 c 0.11861,-0.0579 1.12426,-1.27884 2.22354,-2.71972 v 0 c 0.25147,-0.32946 0.72243,-0.39273 1.05188,-0.14126 v 0 c 0.3297,0.25147 0.39297,0.72242 0.1415,1.05188 v 0 c -0.25147,0.32946 -0.72242,0.39273 -1.05188,0.14126 v 0 c -0.32969,-0.25147 -0.39297,-0.72242 -0.1415,-1.05188 1.50976,-1.98048 2.98543,-3.52643 4.1055,-4.97642 v 0 c 0.25357,-0.32782 0.72499,-0.38806 1.05281,-0.13449 v 0 c 0.32782,0.25357 0.38807,0.72499 0.13449,1.05282 v 0 c -0.25357,0.32782 -0.72499,0.38806 -1.05281,0.13449 v 0 c -0.32783,-0.25357 -0.38807,-0.725 -0.13449,-1.05282 1.53731,-2.06897 3.48276,-4.24582 4.88045,-6.08901 v 0 c 0.25054,-0.33016 0.72149,-0.3946 1.05165,-0.14406 v 0 c 0.33016,0.25053 0.3946,0.72125 0.14406,1.05141 v 0 c -0.25053,0.33016 -0.72125,0.39484 -1.05141,0.1443 v 0 c -0.33039,-0.25054 -0.39484,-0.72149 -0.1443,-1.05165 1.04137,-1.36733 2.0162,-2.73793 2.89857,-3.94368 0.45718,-0.61292 0.99655,-1.21836 1.40422,-1.74489 v 0 c 0.25404,-0.32759 0.72546,-0.38713 1.05305,-0.13332 v 0 c 0.32759,0.25404 0.38713,0.72546 0.13309,1.05305 v 0 c -0.25404,0.32759 -0.72546,0.38713 -1.05305,0.13309 v 0 c -0.32735,-0.25381 -0.38713,-0.72523 -0.13309,-1.05282 0.20571,-0.28042 0.3897,-0.55781 0.57066,-0.80952 v 0 c 0.24213,-0.33646 0.71098,-0.41281 1.04744,-0.17068 v 0 c 0.33647,0.24213 0.41305,0.71098 0.17092,1.04745 v 0 c -0.24213,0.33646 -0.71122,0.41304 -1.04768,0.17091 v 0 c -0.33646,-0.24213 -0.41281,-0.71121 -0.17068,-1.04768 0.11885,-0.14826 0.2001,-0.24026 0.28089,-0.33599 v 0 c 0.26711,-0.31708 0.74064,-0.35748 1.05749,-0.0904 v 0 c 0.31684,0.26711 0.35724,0.74063 0.0901,1.05748 v 0 c -0.26711,0.31709 -0.74063,0.35748 -1.05748,0.0904 v 0 c -0.31685,-0.26711 -0.35725,-0.74063 -0.0901,-1.05748 0.93023,-1.24895 2.104,-2.55838 2.47899,-3.24741 v 0 c 0.20197,-0.36215 0.65914,-0.49174 1.02106,-0.28976 v 0 c 0.36214,0.20197 0.49173,0.65891 0.28976,1.02106 -0.49664,0.87349 -1.70029,2.22051 -2.61418,3.44821 -0.11978,0.14383 -0.19123,0.22462 -0.26431,0.31498 -0.13729,0.19263 -0.32782,0.47913 -0.56482,0.80228 -0.45414,0.58536 -0.9837,1.17914 -1.39465,1.73251 -0.87232,1.19198 -1.85603,2.57495 -2.91118,3.96073 -1.43854,1.89432 -3.3777,4.0637 -4.87928,6.08714 -1.18171,1.52587 -2.64664,3.05945 -4.10783,4.97992 -1.11633,1.46236 -2.18245,2.75498 -2.56165,3.04264 v 0 c -0.34043,0.23629 -0.80811,0.152 -1.04441,-0.18866 v 0 c -0.23629,-0.34043 -0.15177,-0.80812 0.18867,-1.04441" /><path
         inkscape:connector-curvature="0"
         id="path4630"
         style="fill:#000000;fill-opacity:1;fill-rule:nonzero;stroke:none;stroke-width:1"
         d="m 344.81774,575.694 c 0.024,0.0357 -0.11627,-0.0665 -0.26127,-0.12445 v 0 c 0.40651,0.081 0.67035,0.47609 0.58956,0.8826 v 0 c -0.081,0.40651 -0.47609,0.67059 -0.8826,0.58957 v 0 c -0.40651,-0.0808 -0.67059,-0.47609 -0.58956,-0.8826 v 0 c 0.0808,-0.40651 0.47609,-0.67036 0.8826,-0.58957 -0.0747,-0.007 -0.32783,0.0243 -0.42729,0.0637 v 0 c 0.36705,-0.19263 0.82072,-0.0516 1.01359,0.31545 v 0 c 0.19263,0.36682 0.0516,0.82073 -0.31545,1.01336 v 0 c -0.36682,0.19286 -0.82073,0.0516 -1.01336,-0.31522 v 0 c -0.19286,-0.36705 -0.0516,-0.82072 0.31522,-1.01359 -0.071,0.0462 -0.17816,0.14383 -0.20104,0.17069 v 0 c 0.24353,-0.3353 0.71285,-0.40955 1.04815,-0.16602 v 0 c 0.33552,0.24354 0.40977,0.71309 0.16601,1.04838 v 0 c -0.24353,0.3353 -0.71285,0.40955 -1.04815,0.16602 v 0 c -0.33529,-0.24377 -0.40978,-0.71309 -0.16601,-1.04838 -0.021,0.0693 -0.0117,-0.009 0.031,-0.21458 v 0 c 0.0848,-0.40581 0.4824,-0.66592 0.88821,-0.58116 v 0 c 0.40581,0.0845 0.66592,0.48216 0.58116,0.88797 v 0 c -0.0848,0.40581 -0.48239,0.66592 -0.88797,0.58116 v 0 c -0.40581,-0.0845 -0.66592,-0.48216 -0.5814,-0.88797 0.29957,-1.20225 0.59261,-3.17923 0.97834,-4.99977 v 0 c 0.0862,-0.40558 0.48449,-0.66452 0.89007,-0.57836 v 0 c 0.40534,0.0859 0.66428,0.48449 0.57836,0.88984 v 0 c -0.0859,0.40557 -0.4845,0.66452 -0.88984,0.57836 v 0 c -0.40558,-0.0859 -0.66452,-0.4845 -0.57859,-0.88984 0.59026,-2.99571 1.18544,-5.64257 1.75749,-8.61493 v 0 c 0.0782,-0.40721 0.47189,-0.67362 0.87887,-0.59517 v 0 c 0.40697,0.0782 0.67339,0.47189 0.59517,0.87886 v 0 c -0.0785,0.40698 -0.47189,0.6734 -0.87887,0.59518 v 0 c -0.40721,-0.0785 -0.67362,-0.47189 -0.59517,-0.87887 0.67293,-3.51896 1.01616,-6.87471 1.48268,-9.85314 v 0 c 0.0642,-0.40954 0.4483,-0.6895 0.85785,-0.62529 v 0 c 0.40931,0.0642 0.68927,0.44807 0.62506,0.85762 -0.46045,2.9364 -0.80789,6.32133 -1.49155,9.90334 -0.57649,2.995 -1.17237,5.64537 -1.761,8.63314 -0.37872,1.78388 -0.67363,3.77183 -0.9858,5.03339 -0.0397,0.19263 -0.11955,0.50037 -0.27833,0.76025 -0.0591,0.0768 -0.20384,0.21014 -0.31661,0.27809 -0.14103,0.0614 -0.43943,0.0985 -0.59167,0.0736 -0.21715,-0.0715 -0.47539,-0.26525 -0.59331,-0.40815 v 0 c -0.25777,-0.32455 -0.2036,-0.79644 0.12095,-1.05445 v 0 c 0.32456,-0.25777 0.79668,-0.2036 1.05445,0.12095 z" /><path
         inkscape:connector-curvature="0"
         id="path4632"
         style="fill:#000000;fill-opacity:1;fill-rule:nonzero;stroke:none;stroke-width:1"
         d="m 306.67796,638.68763 c 0.28836,0.021 0.70211,0.20594 1.08878,0.50201 v 0 c 0.16391,0.12655 0.19426,0.36214 0.0677,0.52629 v 0 c -0.12679,0.16391 -0.36238,0.19426 -0.52629,0.0677 v 0 c -0.16415,-0.12655 -0.1945,-0.36238 -0.0679,-0.52629 v 0 c 0.12679,-0.16415 0.36238,-0.1945 0.52653,-0.0677 0.37849,0.2935 0.81138,0.7453 1.16115,1.29845 v 0 c 0.11021,0.17558 0.0574,0.40721 -0.11791,0.51742 v 0 c -0.17559,0.1102 -0.40721,0.0574 -0.51742,-0.11792 v 0 c -0.11044,-0.17558 -0.0574,-0.40721 0.11791,-0.51742 v 0 c 0.17559,-0.11044 0.40721,-0.0574 0.51742,0.11792 0.47586,0.81582 0.71542,1.82684 0.72219,2.48109 v 0 c 10e-4,0.20734 -0.16601,0.37615 -0.37335,0.37709 v 0 c -0.20711,10e-4 -0.37592,-0.16602 -0.37709,-0.37336 v 0 c -9.3e-4,-0.20711 0.16625,-0.37615 0.37335,-0.37709 v 0 c 0.20734,-9.3e-4 0.37616,0.16625 0.37709,0.37336 0.0117,0.21341 -0.0117,0.48566 -0.11651,0.69113 -0.19053,0.22439 -0.50434,0.34837 -0.74951,0.33086 -0.39764,-0.0943 -0.79247,-0.46815 -1.06963,-0.99514 -0.33366,-0.69931 -0.67292,-1.7659 -0.82026,-2.71785 v 0 c -0.0313,-0.20501 0.10928,-0.39647 0.31405,-0.42799 v 0 c 0.20501,-0.0313 0.39647,0.10927 0.42776,0.31404 v 0 c 0.0315,0.20501 -0.10904,0.39647 -0.31405,0.42799 v 0 c -0.20477,0.0313 -0.39623,-0.10927 -0.42776,-0.31404 -0.0845,-0.52536 -0.11511,-1.06029 -0.0486,-1.47847 v 0 c 0.0338,-0.20431 0.22695,-0.34254 0.43149,-0.30868 v 0 c 0.20431,0.0339 0.34277,0.22695 0.30891,0.43149 v 0 c -0.0341,0.20454 -0.22719,0.34277 -0.43173,0.30891 v 0 c -0.2043,-0.0339 -0.34276,-0.22719 -0.30867,-0.43172 0.17045,-0.62273 0.65915,-1.07197 1.16466,-1.20763 v 0 c 0.20127,-0.049 0.40417,0.0745 0.45321,0.27599 v 0 c 0.049,0.20127 -0.0745,0.40418 -0.27576,0.45321 v 0 c -0.2015,0.049 -0.40441,-0.0745 -0.45344,-0.27575 v 0 c -0.049,-0.20127 0.0745,-0.40441 0.27599,-0.45345 0.50551,-0.11277 1.15462,0.0276 1.64332,0.39601 v 0 c 0.16367,0.12725 0.19333,0.36308 0.0661,0.52652 v 0 c -0.12725,0.16368 -0.36308,0.19333 -0.52652,0.0661 -0.34907,-0.28276 -0.679,-0.35094 -1.00472,-0.25941 -0.32735,0.067 -0.52349,0.23326 -0.60895,0.6316 -0.0504,0.2942 -0.024,0.71612 0.056,1.20832 0.13566,0.89357 0.44644,1.86817 0.75045,2.5 0.21878,0.42916 0.38176,0.58933 0.50667,0.5877 0.0439,0.014 0.007,0.0296 0.0236,-0.0117 -0.001,0.021 -0.005,-0.0504 -0.0163,-0.24329 2.4e-4,-0.57159 -0.19496,-1.41497 -0.61338,-2.11521 -0.30237,-0.48426 -0.64724,-0.84057 -0.9788,-1.09485 -0.32339,-0.25217 -0.55198,-0.35584 -0.64934,-0.3458 v 0 c -0.20734,-0.005 -0.37079,-0.17768 -0.36565,-0.38479 v 0 c 0.005,-0.20711 0.17769,-0.37079 0.38479,-0.36542" /><path
         inkscape:connector-curvature="0"
         id="path4634"
         style="fill:#000000;fill-opacity:1;fill-rule:nonzero;stroke:none;stroke-width:1"
         d="m 311.56308,643.78967 c -0.31661,0.0163 -0.54917,-0.17162 -0.65004,-0.33343 v 0 c -0.10787,-0.17699 -0.0518,-0.40791 0.12515,-0.51578 v 0 c 0.17699,-0.10788 0.40792,-0.0516 0.51579,0.12538 v 0 c 0.10764,0.17699 0.0516,0.40768 -0.12539,0.51555 v 0 c -0.17698,0.10788 -0.40767,0.0518 -0.51555,-0.12515 -0.0925,-0.15434 -0.19496,-0.37919 -0.28999,-0.63113 v 0 c -0.0728,-0.19403 0.0255,-0.41048 0.21948,-0.48333 v 0 c 0.19403,-0.0729 0.41048,0.0254 0.48333,0.21948 v 0 c 0.0729,0.19404 -0.0254,0.41025 -0.21949,0.4831 v 0 c -0.19403,0.0729 -0.41048,-0.0252 -0.48332,-0.21925 -0.18703,-0.49944 -0.38247,-1.19011 -0.51252,-1.88708 v 0 c -0.0378,-0.20361 0.0967,-0.39951 0.30027,-0.43757 v 0 c 0.20384,-0.0378 0.39974,0.0967 0.43757,0.30051 v 0 c 0.038,0.2036 -0.0964,0.3995 -0.30028,0.43733 v 0 c -0.20383,0.0381 -0.39973,-0.0964 -0.43756,-0.30027 -0.12912,-0.69674 -0.19847,-1.44439 -0.13426,-2.04213 v 0 c 0.0233,-0.20594 0.20874,-0.3542 0.41468,-0.33132 v 0 c 0.20594,0.0234 0.35421,0.20874 0.33133,0.41468 v 0 c -0.0233,0.20594 -0.20874,0.35421 -0.41468,0.33133 v 0 c -0.20594,-0.0234 -0.35421,-0.20875 -0.33133,-0.41469 0.0348,-0.30214 0.11721,-0.61291 0.24237,-0.84407 v 0 c 0.1011,-0.18096 0.32969,-0.24587 0.51064,-0.14477 v 0 c 0.18096,0.10111 0.24564,0.3297 0.14454,0.51065 v 0 c -0.10087,0.18096 -0.32946,0.24564 -0.51042,0.14477 v 0 c -0.18095,-0.10111 -0.24587,-0.32969 -0.14476,-0.51065 0.13542,-0.23419 0.39553,-0.46185 0.66708,-0.54637 v 0 c 0.19987,-0.0546 0.40628,0.0628 0.46092,0.26268 v 0 c 0.0549,0.19987 -0.0628,0.40651 -0.26268,0.46114 -0.11231,0.021 -0.13916,0.0511 -0.20968,0.18773 -0.0815,0.1387 -0.12468,0.31055 -0.152,0.56225 -0.0598,0.51205 0.002,1.15836 0.12609,1.82147 0.12305,0.66335 0.30213,1.29495 0.47749,1.76053 0.0862,0.23023 0.16181,0.39671 0.22859,0.50552 0.057,0.0971 -0.0369,0.0399 -0.25124,0.0187 v 0 c 0.1945,-0.0719 0.41024,0.0276 0.48193,0.22206 v 0 c 0.0719,0.19449 -0.0276,0.41024 -0.22206,0.48192" /><path
         inkscape:connector-curvature="0"
         id="path4636"
         style="fill:#000000;fill-opacity:1;fill-rule:nonzero;stroke:none;stroke-width:1"
         d="m 313.09643,641.08489 c 0.11254,0.13496 0.2029,0.19754 0.37966,0.26128 v 0 c 0.19403,0.0729 0.2921,0.2893 0.21925,0.48333 v 0 c -0.0728,0.1938 -0.2893,0.2921 -0.48333,0.21925 v 0 c -0.19404,-0.0729 -0.2921,-0.2893 -0.21925,-0.48333 v 0 c 0.0729,-0.19403 0.28929,-0.2921 0.48333,-0.21925 0.14523,0.0577 0.27225,0.0904 0.42308,0.0913 v 0 c 0.20711,0.005 0.37149,0.17558 0.36729,0.38292 v 0 c -0.005,0.20711 -0.17559,0.37172 -0.38293,0.36729 v 0 c -0.20711,-0.005 -0.37172,-0.17559 -0.36728,-0.38293 v 0 c 0.005,-0.20711 0.17558,-0.37172 0.38292,-0.36728 0.17722,0.0238 0.25194,0.032 0.2872,0.014 v 0 c 0.19917,-0.0574 0.40698,0.0577 0.46442,0.25684 v 0 c 0.0574,0.19917 -0.0577,0.40697 -0.25661,0.46441 v 0 c -0.19917,0.0574 -0.40721,-0.0577 -0.46465,-0.25684 v 0 c -0.0572,-0.19917 0.0577,-0.40697 0.25684,-0.46441 -0.15037,0.0988 -0.1889,0.18142 -0.19216,0.16017 0.005,-0.0315 -0.002,-0.0609 -0.0308,-0.14757 -0.0567,-0.18002 -0.17698,-0.40487 -0.35304,-0.67596 -0.43873,-0.6393 -0.9879,-1.36219 -1.1308,-1.94639 v 0 c -0.0444,-0.20243 0.0838,-0.40254 0.28626,-0.4469 v 0 c 0.20244,-0.0444 0.40254,0.0838 0.44691,0.28626 v 0 c 0.0444,0.20244 -0.0838,0.40254 -0.28626,0.44691 v 0 c -0.20244,0.0444 -0.40254,-0.0838 -0.44691,-0.28627 -0.0479,-0.21551 -0.0413,-0.52092 0.0743,-0.74811 v 0 c 0.10507,-0.17862 0.33506,-0.23816 0.51368,-0.13309 v 0 c 0.17863,0.10508 0.23817,0.33507 0.1331,0.51369 v 0 c -0.10508,0.17862 -0.33507,0.23816 -0.51369,0.13309 v 0 c -0.17862,-0.10507 -0.23816,-0.33506 -0.13309,-0.51369 0.32386,-0.33039 0.80555,-0.4511 1.24452,-0.48192 v 0 c 0.20687,-0.014 0.38572,0.14219 0.39973,0.34907 v 0 c 0.014,0.20664 -0.14219,0.38573 -0.34907,0.39974 v 0 c -0.20664,0.014 -0.38573,-0.1422 -0.39974,-0.34907 v 0 c -0.014,-0.20688 0.14243,-0.38573 0.34908,-0.39974 0.43733,-0.0278 0.92486,0.005 1.28304,0.0476 v 0 c 0.2057,0.0255 0.35187,0.21271 0.32642,0.41842 v 0 c -0.0252,0.2057 -0.21271,0.35187 -0.41842,0.32642 -0.33389,-0.0413 -0.75628,-0.0696 -1.14108,-0.0437 -0.38176,0.0248 -0.63299,0.0729 -0.69394,0.17628 0.0117,-0.0357 0.021,-0.005 0.0574,0.13963 0.0714,0.39344 0.56669,1.03064 1.02293,1.69539 0.19754,0.30517 0.35911,0.61035 0.44247,0.86065 0.0416,0.13029 0.0698,0.28953 0.0666,0.41608 -0.0117,0.13636 -0.0999,0.34207 -0.21248,0.45111 -0.31568,0.11698 -0.53353,0.10741 -0.69558,0.0836 -0.18586,-0.002 -0.43849,-0.0637 -0.62809,-0.13683 -0.25217,-0.0974 -0.50271,-0.27108 -0.67946,-0.47165 v 0 c -0.13543,-0.15691 -0.11792,-0.3939 0.039,-0.52933 v 0 c 0.15691,-0.13542 0.3939,-0.11791 0.52933,0.039 z" /><path
         inkscape:connector-curvature="0"
         id="path4638"
         style="fill:#000000;fill-opacity:1;fill-rule:nonzero;stroke:none;stroke-width:1"
         d="m 312.76113,639.07569 c 0.10484,0.0292 1.00098,0.0451 1.82638,0.26852 v 0 c 0.19987,0.0549 0.31732,0.26128 0.26244,0.46115 v 0 c -0.0549,0.19987 -0.26151,0.31731 -0.46138,0.26244 -0.72896,-0.2036 -1.55926,-0.21341 -1.79135,-0.25964 v 0 c -0.2022,-0.0453 -0.32946,-0.2461 -0.28416,-0.44831 v 0 c 0.0453,-0.2022 0.24587,-0.32945 0.44807,-0.28416" /><path
         inkscape:connector-curvature="0"
         id="path4640"
         style="fill:#000000;fill-opacity:1;fill-rule:nonzero;stroke:none;stroke-width:1"
         d="m 316.23666,637.61753 c 0.19053,0.0878 0.35375,0.27833 0.43033,0.4294 v 0 c 0.0922,0.18562 0.0163,0.41071 -0.16905,0.50294 v 0 c -0.18562,0.0922 -0.41094,0.0163 -0.50317,-0.16905 v 0 c -0.0922,-0.18563 -0.0163,-0.41071 0.16905,-0.50294 v 0 c 0.18562,-0.0922 0.41094,-0.0163 0.50317,0.16905 0.10694,0.19566 0.22485,0.47749 0.33833,0.72195 v 0 c 0.0871,0.18797 0.005,0.41095 -0.18259,0.49828 v 0 c -0.18796,0.0871 -0.41118,0.005 -0.49827,-0.18259 v 0 c -0.0873,-0.18797 -0.005,-0.41118 0.18259,-0.49828 v 0 c 0.18796,-0.0873 0.41094,-0.005 0.49827,0.18259 0.0689,0.15481 0.12842,0.2844 0.17792,0.37126 v 0 c 0.10204,0.18049 0.0383,0.40931 -0.14196,0.51134 v 0 c -0.18049,0.10204 -0.40955,0.0383 -0.51135,-0.14219 v 0 c -0.10204,-0.18049 -0.0383,-0.40931 0.1422,-0.51135 v 0 c 0.18025,-0.1018 0.40931,-0.0383 0.51111,0.1422 0.0236,0.0425 0.0301,0.0528 0.0346,0.0563 -0.005,-0.005 -0.042,-0.0357 -0.0824,-0.0607 -0.029,-0.0117 -0.19077,-0.0299 -0.26969,-0.0117 -0.21458,0.18095 -0.21014,-0.021 -0.22882,-0.26735 -0.0264,-0.46956 -0.14827,-1.10909 -0.18843,-1.55856 v 0 c -0.0187,-0.20641 0.13449,-0.38853 0.3409,-0.40675 v 0 c 0.20664,-0.0187 0.38853,0.13473 0.40674,0.34114 v 0 c 0.0187,0.2064 -0.13449,0.38853 -0.34113,0.40651 v 0 c -0.20641,0.0187 -0.3883,-0.1345 -0.40651,-0.3409 -0.0187,-0.23093 -0.009,-0.48824 0.10928,-0.69721 v 0 c 0.12842,-0.16251 0.36424,-0.19053 0.52699,-0.0621 v 0 c 0.16274,0.12842 0.19053,0.36448 0.0621,0.52723 v 0 c -0.12842,0.16251 -0.36448,0.19029 -0.52699,0.0621 v 0 c -0.16275,-0.12842 -0.19053,-0.36448 -0.0621,-0.52722 0.12655,-0.12025 0.4525,-0.16251 0.58303,-0.10157 v 0 c 0.18072,0.10157 0.24493,0.33016 0.14336,0.51088 v 0 c -0.10134,0.18072 -0.33016,0.24493 -0.51088,0.14337 v 0 c -0.18072,-0.10134 -0.24493,-0.33016 -0.14336,-0.51089 v 0 c 0.10156,-0.18072 0.33015,-0.24493 0.51088,-0.14336 0.0953,0.0584 0.20267,0.15971 0.29256,0.26782 v 0 c 0.13216,0.1597 0.10974,0.39623 -0.05,0.52815 v 0 c -0.1597,0.13216 -0.39623,0.10975 -0.52839,-0.05 -0.0661,-0.0806 -0.0815,-0.0964 -0.0817,-0.0918 0.035,0.007 0.29303,-0.0269 0.37569,-0.0904 0.0234,-0.089 0.0294,-0.0287 0.0472,0.16929 0.0348,0.40417 0.15831,1.05538 0.1896,1.57443 0.021,0.27506 0.0117,0.56622 -0.0233,0.74718 -0.33203,0.2977 -0.51205,0.27669 -0.5856,0.24096 -0.036,-0.021 -0.0957,-0.0731 -0.11908,-0.0983 -0.0469,-0.0551 -0.0939,-0.12608 -0.12889,-0.18819 -0.0654,-0.11652 -0.13869,-0.27482 -0.20734,-0.42916 -0.11698,-0.25241 -0.22695,-0.51649 -0.31988,-0.6846 -0.0539,-0.11044 -0.014,-0.081 -0.0406,-0.0784 v 0 c -0.19263,-0.0761 -0.28743,-0.29397 -0.21154,-0.48683 v 0 c 0.0761,-0.19287 0.29396,-0.28743 0.48683,-0.21155" /><path
         inkscape:connector-curvature="0"
         id="path4642"
         style="fill:#000000;fill-opacity:1;fill-rule:nonzero;stroke:none;stroke-width:1"
         d="m 317.64579,642.1669 c 0.41562,0.005 0.91786,0.0663 1.25969,-0.17302 v 0 c 0.17559,-0.10998 0.40721,-0.0567 0.51695,0.11908 v 0 c 0.10998,0.17559 0.0567,0.40721 -0.11908,0.51718 v 0 c -0.17559,0.10975 -0.40721,0.0565 -0.51695,-0.11908 v 0 c -0.10998,-0.17582 -0.0567,-0.40744 0.11908,-0.51718 0.16461,-0.11348 0.28019,-0.35421 0.35771,-0.7369 v 0 c 0.0427,-0.20291 0.24166,-0.33273 0.44434,-0.29023 v 0 c 0.2029,0.0427 0.33272,0.24166 0.29023,0.44457 v 0 c -0.0427,0.20267 -0.24167,0.33249 -0.44457,0.28999 v 0 c -0.20267,-0.0427 -0.3325,-0.24166 -0.29,-0.44433 0.0836,-0.38713 0.0862,-0.81979 0.002,-1.28398 v 0 c -0.0357,-0.20407 0.10086,-0.39857 0.30494,-0.43406 v 0 c 0.2043,-0.0357 0.39857,0.10087 0.43429,0.30494 v 0 c 0.0357,0.20407 -0.10087,0.39857 -0.30494,0.4343 v 0 c -0.2043,0.0357 -0.39857,-0.10087 -0.43429,-0.30518 -0.16392,-0.99981 -0.52793,-1.73741 -0.70935,-2.19879 v 0 c -0.0759,-0.19287 0.0187,-0.41072 0.21224,-0.48637 v 0 c 0.19287,-0.0756 0.41071,0.0187 0.48636,0.21225 0.16672,0.42612 0.56482,1.25478 0.75045,2.34659 0.0908,0.5277 0.0871,1.09788 -0.009,1.56464 -0.1018,0.47095 -0.33927,0.9349 -0.66545,1.19874 -0.60732,0.35631 -1.31386,0.31078 -1.69422,0.30751 v 0 c -0.20711,-0.002 -0.37336,-0.17185 -0.37149,-0.37919 v 0 c 0.002,-0.20711 0.17185,-0.37335 0.37919,-0.37148" /><path
         inkscape:connector-curvature="0"
         id="path4644"
         style="fill:#000000;fill-opacity:1;fill-rule:nonzero;stroke:none;stroke-width:1"
         d="m 310.30456,634.06215 c 0.29373,0 0.75418,0 1.39442,0 v 0 c 0.20734,0 0.37545,0.16811 0.37545,0.37545 v 0 c 0,0.20711 -0.16811,0.37523 -0.37545,0.37523 v 0 c -0.20711,0 -0.37522,-0.16812 -0.37522,-0.37523 v 0 c 0,-0.20734 0.16811,-0.37545 0.37522,-0.37545 0.6909,-9.4e-4 1.59825,-0.005 2.50934,0 v 0 c 0.20734,9.3e-4 0.37452,0.16975 0.37359,0.37709 v 0 c -9.4e-4,0.20711 -0.16952,0.37452 -0.37686,0.37359 v 0 c -0.20734,-9.4e-4 -0.37452,-0.16975 -0.37359,-0.37686 v 0 c 9.4e-4,-0.20734 0.16952,-0.37452 0.37686,-0.37382 0.75558,0.009 1.49155,0.025 2.12735,0.0329 v 0 c 0.2071,0.002 0.37312,0.17255 0.37055,0.37989 v 0 c -0.002,0.20711 -0.17279,0.37312 -0.37989,0.37055 v 0 c -0.20735,-0.002 -0.37312,-0.17278 -0.37056,-0.37989 v 0 c 0.002,-0.20734 0.17255,-0.37312 0.3799,-0.37055 0.86158,0.0378 1.43807,0.0623 1.94709,-0.1541 v 0 c 0.19193,-0.078 0.41071,0.014 0.48893,0.20617 v 0 c 0.0782,0.19193 -0.014,0.41071 -0.20594,0.48893 -0.66125,0.26035 -1.39675,0.2468 -2.25133,0.20898 -0.62763,-0.007 -1.36313,-0.0234 -2.11217,-0.0322 -0.90549,-0.005 -1.8105,-10e-4 -2.50257,0 -0.64094,0 -1.10139,0 -1.39512,0 v 0 c -0.20711,0 -0.37522,-0.16812 -0.37522,-0.37523 v 0 c 0,-0.20734 0.16811,-0.37545 0.37522,-0.37545" /><path
         inkscape:connector-curvature="0"
         id="path4646"
         style="fill:#000000;fill-opacity:1;fill-rule:nonzero;stroke:none;stroke-width:1"
         d="m 314.3748,631.33729 c -0.014,0.0243 -0.0325,-0.0663 -0.0245,-0.0712 v 0 c 0.13006,0.16134 0.10507,0.39764 -0.0563,0.52793 v 0 c -0.16111,0.13005 -0.3974,0.10507 -0.52769,-0.0563 v 0 c -0.13029,-0.16111 -0.10507,-0.3974 0.0563,-0.52769 v 0 c 0.16111,-0.13029 0.3974,-0.10507 0.52769,0.056 0.002,0.014 2.3e-4,0.009 0.0731,0.0336 v 0 c 0.19567,0.0686 0.29864,0.28276 0.22999,0.47819 v 0 c -0.0684,0.19567 -0.28252,0.29864 -0.47819,0.23023 v 0 c -0.19566,-0.0686 -0.29863,-0.28276 -0.22999,-0.47843 v 0 c 0.0684,-0.19543 0.28253,-0.2984 0.47819,-0.22999 0.15621,0.0591 0.39227,0.0754 0.66336,0.0743 v 0 c 0.2071,-7e-4 0.37568,0.16672 0.37638,0.37382 v 0 c 7.1e-4,0.20734 -0.16671,0.37593 -0.37382,0.37663 v 0 c -0.20734,7e-4 -0.37592,-0.16672 -0.37662,-0.37382 v 0 c -7e-4,-0.20735 0.16671,-0.37593 0.37406,-0.37663 0.34019,0.0117 0.58419,-0.002 0.69487,-0.11581 0.078,-0.0626 0.0995,-0.15574 0.0756,-0.36168 -0.014,-0.21411 -0.0936,-0.41608 -0.27202,-0.64164 -0.2517,-0.28626 -0.68506,-0.58232 -1.05398,-0.85434 -0.16555,-0.11021 -0.35444,-0.24307 -0.48427,-0.39671 -0.106,-0.19847 -0.14173,-0.40721 -0.11978,-0.55898 v 0 c 0.0388,-0.2036 0.23513,-0.33739 0.43874,-0.29863 v 0 c 0.2036,0.0385 0.33739,0.23512 0.29863,0.43873 v 0 c -0.0385,0.2036 -0.23489,0.33716 -0.43873,0.29863 v 0 c -0.20361,-0.0387 -0.33716,-0.23512 -0.29864,-0.43873 0.0357,-0.15083 0.16251,-0.3472 0.29607,-0.44877 v 0 c 0.16975,-0.11885 0.40371,-0.0778 0.52256,0.092 v 0 c 0.11908,0.16975 0.078,0.4037 -0.0918,0.52255 v 0 c -0.16974,0.11908 -0.4037,0.078 -0.52278,-0.0918 v 0 c -0.11885,-0.16975 -0.0778,-0.40371 0.092,-0.52279 0.50434,-0.23536 1.3211,-0.23092 2.06547,-0.14897 v 0 c 0.20594,0.0234 0.35444,0.20828 0.3318,0.41422 v 0 c -0.0233,0.20594 -0.20851,0.35444 -0.41445,0.33179 v 0 c -0.20594,-0.0234 -0.35444,-0.20851 -0.33156,-0.41445 v 0 c 0.0233,-0.20594 0.20827,-0.35444 0.41421,-0.33156 0.86556,0.0796 1.6606,0.28743 2.06431,0.27856 v 0 c 0.20711,-0.002 0.37662,0.16484 0.37849,0.37219 v 0 c 0.002,0.2071 -0.16485,0.37662 -0.37219,0.37849 -0.52979,-9.4e-4 -1.33324,-0.21015 -2.14579,-0.28253 -0.71425,-0.0796 -1.37387,-0.0911 -1.60783,0.0455 0.021,-0.0163 0.0539,-0.0665 0.0588,-0.0544 -0.009,0.0117 -0.014,-0.0233 0.009,0.014 0.002,-10e-4 0.11208,0.0703 0.2886,0.18843 0.37242,0.27412 0.86088,0.61338 1.20015,0.98954 0.25194,0.33085 0.40861,0.72476 0.442,1.05468 0.024,0.3381 -0.0946,0.73924 -0.32432,0.9865 -0.35374,0.25988 -0.82703,0.31779 -1.20412,0.30681 -0.28883,9.4e-4 -0.63814,-0.0282 -0.90105,-0.11604 -0.13682,-0.0497 -0.30704,-0.15411 -0.41048,-0.27249 -0.0948,-0.13169 -0.15387,-0.38503 -0.12188,-0.56341 v 0 c 0.0455,-0.20221 0.24633,-0.32899 0.44854,-0.28346 v 0 c 0.2022,0.0455 0.32922,0.24633 0.28346,0.44853" /><path
         inkscape:connector-curvature="0"
         id="path4648"
         style="fill:#000000;fill-opacity:1;fill-rule:nonzero;stroke:none;stroke-width:1"
         d="m 349.02247,567.05105 c 0.18983,0.13006 1.40329,1.4166 2.005,2.78767 v 0 c 0.0824,0.19006 -0.005,0.41094 -0.19497,0.49337 v 0 c -0.19029,0.0827 -0.41118,-0.005 -0.4936,-0.19497 v 0 c -0.0824,-0.19006 0.005,-0.41118 0.19497,-0.4936 v 0 c 0.19006,-0.0824 0.41118,0.005 0.4936,0.1952 0.23373,0.60474 0.34603,1.2319 0.39367,1.68464 v 0 c 0.021,0.20594 -0.12796,0.39064 -0.33413,0.41235 v 0 c -0.20617,0.021 -0.39063,-0.12819 -0.41235,-0.33413 v 0 c -0.021,-0.20617 0.12819,-0.39086 0.33413,-0.41234 v 0 c 0.20617,-0.021 0.39087,0.12795 0.41235,0.33412 0.0336,0.20384 0.0581,0.43757 0.031,0.62927 v 0 c -0.0346,0.20453 -0.22789,0.3423 -0.43243,0.30797 v 0 c -0.2043,-0.0343 -0.34206,-0.22789 -0.30774,-0.43219 v 0 c 0.0343,-0.20454 0.22789,-0.3423 0.4322,-0.30798 v 0 c 0.2043,0.0343 0.3423,0.22789 0.30797,0.4322 0.002,0.021 -0.0117,0.12164 -0.0367,0.1994 -0.0338,0.0852 -0.13939,0.22252 -0.23886,0.28719 -0.30284,0.0556 -0.5375,-0.0117 -0.70491,-0.11231 -0.15644,-0.0974 -0.3437,-0.26221 -0.49501,-0.44807 -0.46138,-0.7432 -0.8408,-2.05216 -0.96222,-3.12949 v 0 c -0.0233,-0.20618 0.12562,-0.39157 0.33156,-0.41445 v 0 c 0.20594,-0.0233 0.39157,0.12538 0.41445,0.33156 v 0 c 0.0233,0.20594 -0.12562,0.39133 -0.33156,0.41421 v 0 c -0.20594,0.0234 -0.39156,-0.12538 -0.41445,-0.33132 -0.0509,-0.3918 -0.0656,-0.78897 -0.0117,-1.1154 v 0 c 0.035,-0.2043 0.22905,-0.3416 0.43313,-0.30657 v 0 c 0.2043,0.0348 0.3416,0.22882 0.30681,0.43313 v 0 c -0.035,0.2043 -0.22906,0.3416 -0.43337,0.30657 v 0 c -0.2043,-0.035 -0.34136,-0.22882 -0.30657,-0.43313 0.15504,-0.53539 0.51882,-0.91832 0.84594,-1.10418 v 0 c 0.18142,-0.10017 0.40978,-0.0343 0.50995,0.1471 v 0 c 0.10017,0.18142 0.0343,0.40978 -0.1471,0.50995 v 0 c -0.18143,0.10016 -0.40978,0.0343 -0.50995,-0.1471 v 0 c -0.10017,-0.18143 -0.0343,-0.40978 0.1471,-0.50995 0.33997,-0.17979 0.75044,-0.23933 1.00145,-0.1924 v 0 c 0.20197,0.046 0.32876,0.2468 0.28299,0.44901 v 0 c -0.0458,0.2022 -0.2468,0.32875 -0.44877,0.28299 -0.0822,-0.0285 -0.25544,-0.009 -0.47376,0.11791 -0.22905,0.12142 -0.396,0.27459 -0.47585,0.60848 -0.036,0.20594 -0.0234,0.49594 0.0254,0.86346 0.11114,1.01452 0.45157,2.19529 0.82726,2.78509 0.0852,0.10344 0.17862,0.1847 0.27762,0.24307 0.0913,0.0595 0.0904,0.0614 0.0773,0.0507 -0.16181,0.0736 -0.22719,0.15527 -0.23373,0.16391 4.7e-4,0.005 -0.002,0.014 -0.001,-0.0233 0.021,-0.12165 0.005,-0.2475 -0.0294,-0.45741 -0.0467,-0.44364 -0.13893,-0.97623 -0.34394,-1.49832 -0.52746,-1.23284 -1.65569,-2.41618 -1.70636,-2.43509 v 0 c -0.17605,-0.10904 -0.23046,-0.34043 -0.12118,-0.51672 v 0 c 0.10904,-0.17605 0.34043,-0.23022 0.51648,-0.12118" /><path
         inkscape:connector-curvature="0"
         id="path4650"
         style="fill:#000000;fill-opacity:1;fill-rule:nonzero;stroke:none;stroke-width:1"
         d="m 353.6671,572.13955 c -0.27109,0.085 -0.62016,-0.021 -0.81979,-0.1903 v 0 c -0.15551,-0.13682 -0.17069,-0.37405 -0.0336,-0.52956 v 0 c 0.13683,-0.1555 0.37406,-0.17068 0.52956,-0.0336 v 0 c 0.15551,0.13683 0.17069,0.37406 0.0336,0.52956 v 0 c -0.13683,0.15551 -0.37406,0.17068 -0.52956,0.0336 -0.18259,-0.16484 -0.37102,-0.42425 -0.52816,-0.70608 v 0 c -0.10064,-0.18119 -0.0353,-0.40954 0.14593,-0.51018 v 0 c 0.18119,-0.10063 0.40978,-0.0353 0.51018,0.14594 v 0 c 0.10064,0.18119 0.0353,0.40954 -0.14593,0.51018 v 0 c -0.18119,0.10063 -0.40955,0.0353 -0.51018,-0.14594 -0.30798,-0.55804 -0.59471,-1.34351 -0.77169,-2.10376 v 0 c -0.0467,-0.20174 0.0789,-0.40348 0.28089,-0.45017 v 0 c 0.20173,-0.0469 0.40347,0.0789 0.4504,0.28065 v 0 c 0.0467,0.20197 -0.0789,0.40348 -0.28089,0.45041 v 0 c -0.20197,0.0467 -0.40347,-0.0789 -0.4504,-0.28089 -0.17559,-0.76095 -0.25264,-1.56393 -0.14337,-2.14229 v 0 c 0.0404,-0.20337 0.23793,-0.3353 0.4413,-0.2949 v 0 c 0.20314,0.0404 0.3353,0.23793 0.2949,0.4413 v 0 c -0.0404,0.20314 -0.23793,0.33529 -0.4413,0.29466 v 0 c -0.20337,-0.0404 -0.33529,-0.23792 -0.2949,-0.44106 0.0616,-0.2977 0.21435,-0.61152 0.42496,-0.79691 v 0 c 0.16064,-0.13052 0.39717,-0.10624 0.52792,0.0546 v 0 c 0.13076,0.16064 0.10624,0.39693 -0.0544,0.52769 v 0 c -0.16088,0.13075 -0.39717,0.10647 -0.52793,-0.0544 v 0 c -0.13075,-0.16064 -0.10647,-0.39717 0.0544,-0.52792 0.22952,-0.16975 0.61151,-0.24097 0.94681,-0.15714 v 0 c 0.19987,0.0542 0.31802,0.26034 0.26385,0.46045 v 0 c -0.0544,0.19986 -0.26058,0.31801 -0.46045,0.26384 -0.19147,-0.0593 -0.21108,-0.0532 -0.27809,0.0163 -0.0836,0.0537 -0.12025,0.14313 -0.16088,0.35957 -0.0953,0.45018 -0.028,1.11259 0.13846,1.82661 0.16508,0.71519 0.41819,1.41076 0.69651,1.90904 0.13636,0.24633 0.25287,0.40977 0.36798,0.50714 0.0981,0.0934 0.0395,0.088 0.0329,0.0616 v 0 c 0.19123,-0.0803 0.41118,0.009 0.4915,0.20057 v 0 c 0.0803,0.191 -0.009,0.41118 -0.20057,0.49127 z" /><path
         inkscape:connector-curvature="0"
         id="path4652"
         style="fill:#000000;fill-opacity:1;fill-rule:nonzero;stroke:none;stroke-width:1"
         d="m 353.9181,569.48825 c 0.18563,-0.0621 0.37289,-0.0427 0.488,-0.014 v 0 c 0.20127,0.0495 0.32432,0.25287 0.27482,0.45414 v 0 c -0.0495,0.20127 -0.25264,0.32432 -0.45391,0.27482 v 0 c -0.20127,-0.0495 -0.32432,-0.25287 -0.27482,-0.45414 v 0 c 0.0495,-0.20127 0.25264,-0.32432 0.45391,-0.27482 0.11114,0.0266 0.22229,0.0612 0.31919,0.0796 v 0 c 0.20337,0.0397 0.33599,0.23676 0.2963,0.44013 v 0 c -0.0397,0.20337 -0.23676,0.33623 -0.44037,0.2963 v 0 c -0.20337,-0.0397 -0.33599,-0.23676 -0.2963,-0.44013 v 0 c 0.0399,-0.20337 0.23699,-0.336 0.44037,-0.2963 0.0313,-0.002 0.0719,-0.005 0.11301,-0.021 v 0 c 0.19636,-0.0663 0.40931,0.039 0.47562,0.23536 v 0 c 0.0663,0.19637 -0.039,0.40931 -0.23536,0.47563 v 0 c -0.19637,0.0663 -0.40931,-0.039 -0.47562,-0.23536 v 0 c -0.0663,-0.19637 0.039,-0.40932 0.23536,-0.47563 0.0343,-0.007 -0.0163,0.0413 -0.0318,0.043 -0.007,0.0117 -0.15457,-0.28697 -0.35911,-0.62063 -0.343,-0.51531 -0.76936,-1.02806 -0.85038,-1.49225 v 0 c -0.0236,-0.2057 0.12422,-0.3918 0.33016,-0.41538 v 0 c 0.20594,-0.0236 0.39203,0.12422 0.41562,0.33016 v 0 c 0.0233,0.20594 -0.12446,0.39203 -0.33016,0.41562 v 0 c -0.20594,0.0234 -0.39204,-0.12446 -0.41562,-0.3304 0.005,-0.20617 0.0943,-0.42168 0.2008,-0.54006 v 0 c 0.1443,-0.14874 0.38176,-0.15247 0.5305,-0.007 v 0 c 0.14873,0.1443 0.15224,0.38176 0.007,0.5305 v 0 c -0.14429,0.14873 -0.38176,0.15223 -0.53049,0.007 v 0 c -0.14874,-0.1443 -0.15224,-0.38199 -0.007,-0.53049 0.10998,-0.10624 0.29444,-0.20618 0.45718,-0.24961 v 0 c 0.20104,-0.0507 0.40488,0.0712 0.45555,0.27226 v 0 c 0.0507,0.20103 -0.0712,0.40487 -0.27226,0.45554 v 0 c -0.2008,0.0507 -0.40487,-0.0712 -0.45554,-0.27225 v 0 c -0.0507,-0.20081 0.0712,-0.40488 0.27225,-0.45555 0.30681,-0.0717 0.75815,-0.0523 1.24592,0.0843 v 0 c 0.1994,0.0567 0.31521,0.26432 0.25847,0.46349 v 0 c -0.0567,0.1994 -0.26408,0.31521 -0.46348,0.25847 -0.41375,-0.11955 -0.67596,-0.12982 -0.85762,-0.0784 -0.0815,0.0187 -0.085,0.0187 -0.1018,0.0444 -0.021,0.0117 0.002,-0.0439 0.009,-0.0234 -0.009,0.14477 0.35935,0.56716 0.7348,1.12941 0.23186,0.37989 0.44387,0.83613 0.44597,1.19034 -0.11488,0.29607 -0.30541,0.4483 -0.44363,0.50084 -0.13893,0.0434 -0.31218,0.0595 -0.44597,0.0544 -0.1917,-0.0341 -0.31849,-0.0729 -0.40581,-0.0932 -0.0904,-0.0233 -0.0689,-0.0287 0.0261,-0.0453 v 0 c -0.18493,0.0936 -0.41072,0.0187 -0.50411,-0.16554 v 0 c -0.0936,-0.18493 -0.0187,-0.41072 0.16554,-0.50411 z" /><path
         inkscape:connector-curvature="0"
         id="path4654"
         style="fill:#000000;fill-opacity:1;fill-rule:nonzero;stroke:none;stroke-width:1"
         d="m 353.70166,568.15547 c 0.2071,-0.1443 0.57275,-0.22462 0.944,-0.22859 v 0 c 0.20735,-10e-4 0.37616,0.16578 0.37756,0.37312 v 0 c 0.001,0.20735 -0.16578,0.37616 -0.37312,0.37756 v 0 c -0.20734,10e-4 -0.37616,-0.16578 -0.37756,-0.37312 v 0 c -10e-4,-0.20734 0.16578,-0.37616 0.37312,-0.37756 0.36495,-9.3e-4 0.83404,0.0628 1.24989,0.21668 v 0 c 0.19403,0.0731 0.29186,0.28953 0.21901,0.48357 v 0 c -0.0731,0.1938 -0.28953,0.29186 -0.48356,0.21878 -0.33319,-0.12795 -0.67269,-0.17138 -0.9809,-0.16835 -0.30214,0 -0.47399,0.0348 -0.47375,0.0593 v 0 c -0.16065,0.13099 -0.39694,0.10717 -0.52793,-0.0535 v 0 c -0.13122,-0.16041 -0.10717,-0.39694 0.0532,-0.52793" /><path
         inkscape:connector-curvature="0"
         id="path4656"
         style="fill:#000000;fill-opacity:1;fill-rule:nonzero;stroke:none;stroke-width:1"
         d="m 355.96023,567.94323 c 0.15013,0.0313 0.41865,-0.60545 0.37709,-0.64187 v 0 c 0.16624,0.12375 0.2008,0.35888 0.0771,0.52512 v 0 c -0.12375,0.16625 -0.35888,0.20057 -0.52513,0.0768 v 0 c -0.16624,-0.12375 -0.20057,-0.35864 -0.0768,-0.52489 v 0 c 0.12351,-0.16625 0.35864,-0.2008 0.52489,-0.077 -0.046,-0.0297 -0.0266,-0.0187 -0.0233,-0.0163 v 0 c 0.18002,0.10274 0.24259,0.33203 0.13962,0.51182 v 0 c -0.10273,0.18002 -0.33202,0.2426 -0.51204,0.13963 v 0 c -0.17979,-0.10274 -0.24237,-0.33203 -0.13963,-0.51182 v 0 c 0.10297,-0.18002 0.33202,-0.2426 0.51205,-0.13963 -0.005,-0.002 0.005,0.002 0.0248,0.009 v 0 c 0.19076,0.0813 0.27949,0.30168 0.19823,0.4922 v 0 c -0.081,0.19077 -0.30144,0.2795 -0.4922,0.19824 v 0 c -0.19076,-0.081 -0.27949,-0.30144 -0.19824,-0.4922 v 0 c 0.081,-0.19076 0.30144,-0.27949 0.49221,-0.19824 0.0493,0.021 0.1025,0.0423 0.16694,0.0581 -0.0455,-0.0117 -0.021,-0.0163 0.021,-0.0395 0.0409,-0.0163 0.014,0.0163 0.001,0.0163 -0.005,0.10904 -0.18586,-0.10064 -0.37616,-0.3437 v 0 c -0.12795,-0.16321 -0.099,-0.39904 0.064,-0.52676 v 0 c 0.16321,-0.12772 0.39903,-0.099 0.52699,0.0642 v 0 c 0.12772,0.16321 0.099,0.39904 -0.0642,0.52676 v 0 c -0.16321,0.12772 -0.39904,0.099 -0.52676,-0.0642 -0.12072,-0.14897 -0.26268,-0.35258 -0.33039,-0.55782 v 0 c -0.0586,-0.1987 0.0549,-0.40744 0.25357,-0.46628 v 0 c 0.1987,-0.0586 0.40744,0.0549 0.46628,0.25357 v 0 c 0.0586,0.1987 -0.0549,0.40745 -0.25357,0.46629 v 0 c -0.1987,0.0588 -0.40744,-0.0549 -0.46628,-0.25358 -0.021,-0.4044 0.21178,-0.77893 0.4992,-0.92042 v 0 c 0.19077,-0.0808 0.41095,0.009 0.49174,0.19917 v 0 c 0.0808,0.19099 -0.009,0.41118 -0.19917,0.49196 v 0 c -0.191,0.0808 -0.41118,-0.009 -0.49197,-0.1994 v 0 c -0.0808,-0.19076 0.009,-0.41094 0.1994,-0.49173 0.28837,-0.10647 0.74461,-0.053 1.09812,0.20103 v 0 c 0.16531,0.12516 0.198,0.36052 0.0729,0.52583 v 0 c -0.12492,0.16508 -0.36028,0.19777 -0.52559,0.0729 -0.20034,-0.16485 -0.26618,-0.16111 -0.35281,-0.10858 -0.088,0.0163 -0.0843,0.007 -0.0577,0.0932 9.3e-4,-0.002 0.0712,0.0885 0.18329,0.22649 0.18959,0.24213 0.45251,0.57859 0.51158,0.91178 -0.0985,0.33296 -0.26315,0.48823 -0.39133,0.55525 -0.12679,0.0595 -0.30378,0.1004 -0.43803,0.1053 -0.20735,-0.0395 -0.31312,-0.0798 -0.37593,-0.10647 -0.0367,-0.0163 -0.0698,-0.032 -0.0845,-0.0392 -0.029,-0.0163 -0.0187,-0.0117 0.0187,0.007 -0.13729,-0.0901 0.13052,-0.72897 0.28533,-0.69558 v 0 c 0.18936,0.0841 0.27458,0.30588 0.19053,0.49524 v 0 c -0.0843,0.18936 -0.30611,0.27482 -0.49547,0.19053 z" /><path
         inkscape:connector-curvature="0"
         id="path4658"
         style="fill:#000000;fill-opacity:1;fill-rule:nonzero;stroke:none;stroke-width:1"
         d="m 357.49053,569.27577 c 0.35981,-0.0995 0.50762,-0.10297 0.58233,-0.36869 v 0 c 0.0756,-0.19286 0.29327,-0.28813 0.48613,-0.21271 v 0 c 0.1931,0.0754 0.28837,0.29304 0.21295,0.48613 v 0 c -0.0754,0.1931 -0.29327,0.28837 -0.48613,0.21271 v 0 c -0.1931,-0.0754 -0.28836,-0.29303 -0.21295,-0.48613 0.11698,-0.35514 0.1387,-1.00238 0.0808,-1.59872 v 0 c -0.0187,-0.20617 0.13169,-0.38946 0.33786,-0.40908 v 0 c 0.20641,-0.021 0.3897,0.13146 0.40932,0.33787 v 0 c 0.0187,0.20617 -0.13169,0.38946 -0.33787,0.40908 v 0 c -0.2064,0.021 -0.38946,-0.13146 -0.40931,-0.33787 -0.028,-0.29747 -0.0724,-0.55081 -0.13426,-0.74787 v 0 c -0.0612,-0.198 0.05,-0.40815 0.24797,-0.46932 v 0 c 0.198,-0.0612 0.40815,0.05 0.46909,0.24797 v 0 c 0.0612,0.198 -0.0497,0.40814 -0.24774,0.46932 v 0 c -0.198,0.0609 -0.40814,-0.05 -0.46932,-0.24797 -0.0574,-0.19217 -0.071,-0.2342 -0.0493,-0.1917 v 0 c -0.18937,-0.0843 -0.27459,-0.30611 -0.19053,-0.49547 v 0 c 0.0843,-0.18936 0.30611,-0.27459 0.49547,-0.1903 0.22252,0.13169 0.38152,0.40138 0.46161,0.65658 0.0754,0.24704 0.13286,0.57159 0.16415,0.89755 0.0609,0.64841 0.0317,1.42103 -0.12072,1.91977 -0.23559,0.53026 -0.71098,0.73714 -1.08924,0.84221 v 0 c -0.19964,0.0553 -0.40651,-0.0616 -0.46185,-0.26151 v 0 c -0.0553,-0.19964 0.0616,-0.40651 0.26151,-0.46185" /><path
         inkscape:connector-curvature="0"
         id="path4660"
         style="fill:#000000;fill-opacity:1;fill-rule:nonzero;stroke:none;stroke-width:1"
         d="m 350.68354,563.86202 c 0.25754,0.0117 0.50014,0.0187 1.0876,0.0324 v 0 c 0.20711,0.005 0.37125,0.17699 0.36635,0.3841 v 0 c -0.005,0.20711 -0.17699,0.37125 -0.38409,0.36635 v 0 c -0.20711,-0.005 -0.37126,-0.17676 -0.36635,-0.3841 v 0 c 0.005,-0.2071 0.17698,-0.37125 0.38409,-0.36635 0.59261,0.0187 1.45419,0.05 2.36388,0.0827 v 0 c 0.2071,0.007 0.36891,0.18142 0.36144,0.38853 v 0 c -0.007,0.20711 -0.18142,0.36892 -0.38853,0.36145 v 0 c -0.20711,-0.007 -0.36892,-0.18143 -0.36144,-0.38853 v 0 c 0.007,-0.20711 0.18142,-0.36892 0.38853,-0.36145 0.62412,0.0268 1.25735,0.0516 1.81984,0.0654 v 0 c 0.20734,0.005 0.37101,0.17722 0.36611,0.38433 v 0 c -0.005,0.2071 -0.17722,0.37101 -0.38456,0.36588 v 0 c -0.20711,-0.005 -0.37102,-0.17722 -0.36588,-0.38433 v 0 c 0.005,-0.20711 0.17722,-0.37102 0.38433,-0.36588 1.96553,0.0397 2.81731,-0.0556 3.26889,0.0236 v 0 c 0.20337,0.0397 0.33622,0.23653 0.29676,0.4399 v 0 c -0.0395,0.2036 -0.23652,0.33646 -0.43989,0.297 -0.29444,-0.0658 -1.14552,0.0297 -3.14234,-0.009 -0.57019,-0.014 -1.20973,-0.0388 -1.83292,-0.0656 -0.90688,-0.0327 -1.7673,-0.0635 -2.35523,-0.0824 -0.58607,-0.014 -0.83707,-0.021 -1.09812,-0.0327 v 0 c -0.2071,-0.009 -0.36798,-0.18376 -0.35934,-0.39087 v 0 c 0.009,-0.2071 0.18376,-0.36775 0.39087,-0.35911" /><path
         inkscape:connector-curvature="0"
         id="path4662"
         style="fill:#000000;fill-opacity:1;fill-rule:nonzero;stroke:none;stroke-width:1"
         d="m 353.15692,561.83764 c 0.38596,0.27155 0.7892,0.41468 1.1231,0.38386 v 0 c 0.20664,-0.014 0.38502,0.1436 0.39833,0.35047 v 0 c 0.014,0.20688 -0.14359,0.38527 -0.35047,0.39857 v 0 c -0.20687,0.014 -0.38526,-0.14383 -0.39857,-0.35047 v 0 c -0.014,-0.20687 0.14383,-0.38526 0.35071,-0.39857 0.1046,-0.007 0.12538,-0.0187 0.15854,-0.13636 v 0 c 0.0782,-0.19193 0.29723,-0.28416 0.48916,-0.20594 v 0 c 0.19193,0.078 0.28416,0.297 0.20594,0.48893 v 0 c -0.0782,0.19194 -0.297,0.28416 -0.48893,0.20618 v 0 c -0.19216,-0.0782 -0.28439,-0.29724 -0.20617,-0.48917 0.06,-0.12141 0.0584,-0.24983 -0.0645,-0.51858 v 0 c -0.0827,-0.19007 0.005,-0.41118 0.19404,-0.49384 v 0 c 0.19006,-0.0829 0.41117,0.005 0.49406,0.1938 v 0 c 0.0829,0.19006 -0.005,0.41118 -0.19403,0.49407 v 0 c -0.19006,0.0829 -0.41118,-0.005 -0.49407,-0.19403 -0.14756,-0.32853 -0.44737,-0.69161 -0.86602,-1.06006 -0.30307,-0.25614 -0.66265,-0.50131 -1.00775,-0.7313 -0.27809,-0.17535 -0.56575,-0.35304 -0.76959,-0.53002 -0.13006,-0.13916 -0.23093,-0.28953 -0.28229,-0.41936 v 0 c -0.0715,-0.19473 0.0285,-0.41024 0.22298,-0.48169 v 0 c 0.1945,-0.0712 0.41025,0.0285 0.48146,0.22322 v 0 c 0.0715,0.1945 -0.0285,0.41001 -0.22298,0.48146 v 0 c -0.1945,0.0715 -0.41025,-0.0285 -0.48146,-0.22299 -0.0472,-0.14196 -0.0355,-0.39833 0.0551,-0.55898 v 0 c 0.11815,-0.17021 0.35211,-0.21224 0.52232,-0.0939 v 0 c 0.17022,0.11815 0.21225,0.35211 0.0939,0.52232 v 0 c -0.11815,0.16998 -0.35211,0.21225 -0.52209,0.0939 v 0 c -0.17022,-0.11815 -0.21248,-0.35211 -0.0941,-0.52233 0.49173,-0.27295 1.1329,-0.251 1.78505,-0.22625 v 0 c 0.20711,0.007 0.36845,0.18212 0.36074,0.38923 v 0 c -0.007,0.20711 -0.18235,0.36869 -0.38946,0.36075 v 0 c -0.20711,-0.007 -0.36845,-0.18213 -0.36051,-0.38923 v 0 c 0.007,-0.20711 0.18212,-0.36869 0.38923,-0.36075 1.55202,-0.0187 3.52806,7e-4 4.04735,0.27202 v 0 c 0.17769,0.10694 0.23466,0.33763 0.12772,0.51508 v 0 c -0.10694,0.17746 -0.33763,0.23466 -0.51508,0.12772 -0.20851,-0.16764 -2.10774,-0.18259 -3.67003,-0.16461 -0.67153,-0.0252 -1.20015,-0.0509 -1.29705,0.025 0.14757,-0.16414 0.15737,-0.27131 0.17091,-0.24983 0.009,0.0381 0.0336,0.0703 0.10181,0.1429 0.11838,0.1039 0.36471,0.2538 0.65448,0.43663 0.35677,0.23769 0.74951,0.50667 1.0897,0.79294 0.46699,0.41374 0.85739,0.89053 1.06053,1.32086 0.16601,0.3939 0.18142,0.81956 0.075,1.10839 -0.13356,0.29233 -0.46278,0.54147 -0.77403,0.59937 -0.5347,0.0262 -1.15555,-0.18819 -1.63001,-0.51228 v 0 c -0.17045,-0.11791 -0.21294,-0.35164 -0.095,-0.52209 v 0 c 0.11791,-0.17045 0.35187,-0.21294 0.52209,-0.095 z" /><path
         inkscape:connector-curvature="0"
         id="path4664"
         style="fill:#000000;fill-opacity:1;fill-rule:nonzero;stroke:none;stroke-width:1"
         d="m 271.3611,583.20778 c 0.22252,0.19076 0.43056,0.54357 0.49337,0.80321 v 0 c 0.0815,0.40651 -0.18213,0.80182 -0.58864,0.8833 v 0 c -0.40627,0.0813 -0.80181,-0.18235 -0.88306,-0.58886 v 0 c -0.0813,-0.40628 0.18212,-0.80181 0.58863,-0.88307 v 0 c 0.40651,-0.0813 0.80181,0.18212 0.88307,0.58863 0.042,0.26689 -0.032,0.70842 -0.20431,0.98487 v 0 c -0.244,0.3353 -0.71332,0.40932 -1.04838,0.16532 v 0 c -0.33529,-0.24377 -0.40931,-0.71309 -0.16554,-1.04838 v 0 c 0.24399,-0.33506 0.71331,-0.40908 1.04861,-0.16532 v 0 c 0.33506,0.24377 0.40908,0.71332 0.16531,1.04838 -0.58163,0.41585 -1.2291,0.52139 -1.72621,0.42613 v 0 c -0.40464,-0.0899 -0.65985,-0.4908 -0.56972,-0.89545 v 0 c 0.0899,-0.40464 0.4908,-0.65961 0.89545,-0.56972 v 0 c 0.4044,0.0899 0.65961,0.4908 0.56972,0.89545 v 0 c -0.0899,0.40464 -0.4908,0.65961 -0.89545,0.56972 -0.43406,-0.15247 -0.85761,-0.45134 -1.09998,-0.77753 -0.22579,-0.52933 -0.26688,-1.0806 -0.17512,-1.49482 0.31498,-0.6393 0.88144,-1.04137 1.38298,-1.23471 0.49663,-0.18352 1.10535,-0.28976 1.61086,-0.32245 0.56061,-0.0163 1.16302,0.0988 1.59779,0.31802 0.43499,0.24306 0.86555,0.73573 1.03507,1.23494 0.15083,0.57999 0.12001,1.4166 -0.27342,2.04095 -0.50061,0.52886 -1.21253,0.90292 -1.8112,1.04605 -0.3953,0.11418 -1.02363,0.11861 -1.49809,-0.10204 -0.70071,-0.55828 -1.10465,-1.50882 -1.11586,-2.23545 0.19941,-0.71706 0.66943,-1.21089 1.09578,-1.45116 0.4315,-0.22532 1.04138,-0.35257 1.50743,-0.29466 0.41188,0.12678 0.77239,0.41281 0.94284,0.66592 0.15037,0.25474 0.25778,0.61245 0.2935,0.90174 0.0551,0.26385 0.0852,0.69791 0.0334,1.05749 -0.40184,0.8317 -1.16466,1.30662 -1.80349,1.43177 -0.42473,0.0815 -1.03181,0.0329 -1.46307,-0.19636 -0.48916,-0.47376 -0.75254,-1.075 -0.80625,-1.55833 -0.005,-0.52746 0.24937,-1.14738 0.62179,-1.4766 0.47843,-0.2335 0.9669,-0.27436 1.30616,-0.20875 0.44947,0.22042 0.70491,0.47493 0.83754,0.66943 0.13052,0.2078 0.24656,0.56365 0.23139,0.87676 v 0 c -0.0675,0.40908 -0.45391,0.68577 -0.86276,0.61829 v 0 c -0.40907,-0.0675 -0.68576,-0.45368 -0.61828,-0.86276 v 0 c 0.0675,-0.40884 0.45391,-0.68576 0.86275,-0.61828 v 0 c 0.40908,0.0677 0.68577,0.4539 0.61829,0.86275 -0.0532,0.20337 -0.36985,0.58139 -0.63207,0.68436 v 0 c -0.40324,0.096 -0.80788,-0.15317 -0.90384,-0.55641 v 0 c -0.096,-0.40324 0.15293,-0.80788 0.55617,-0.90385 v 0 c 0.40325,-0.096 0.80812,0.15318 0.90409,0.55642 v 0 c 0.096,0.40324 -0.15318,0.80788 -0.55642,0.90384 -0.22765,0.0283 -0.51555,-0.0245 -0.66241,-0.0901 v 0 c -0.37382,-0.17933 -0.53143,-0.62763 -0.35211,-1.00145 v 0 c 0.17932,-0.37359 0.62763,-0.5312 1.00145,-0.35187 v 0 c 0.37359,0.17932 0.53119,0.62762 0.35187,1.00121 v 0 c -0.17932,0.37382 -0.62763,0.53143 -1.00121,0.35211 -0.23536,-0.12282 -0.55034,-0.36892 -0.88797,-0.71869 v 0 c -0.2872,-0.29911 -0.27739,-0.77403 0.021,-1.06122 v 0 c 0.29887,-0.2872 0.77403,-0.27739 1.06122,0.021 0.27809,0.2914 0.40021,0.38503 0.46185,0.40861 -0.009,2.3e-4 -0.18936,-0.0325 -0.32315,-0.0245 -0.20571,0.0894 -0.48006,0.41188 -0.51952,0.53307 0.0117,0.15504 0.0378,0.25077 -0.005,0.1945 -0.0409,-0.0696 -0.043,-0.0792 -0.10204,-0.10111 0.0841,0.0399 0.0637,0.0369 10e-4,0.0836 0.0588,-0.0635 0.0644,-0.0621 0.0873,0.11558 0.007,0.1917 0.0719,0.35071 0.21925,0.47212 -0.0605,-0.0322 0.0163,-0.0392 0.27295,-0.0983 0.38012,-0.0518 0.59634,-0.16274 0.66288,-0.39553 -0.0283,0.0285 -0.0453,-0.15107 -0.0941,-0.38316 -0.0278,-0.23536 -0.0371,-0.28066 -0.0838,-0.33927 -0.0268,-0.0609 0.0563,-10e-4 0.005,-0.002 -0.0722,-0.021 -0.23653,0.0163 -0.46768,0.1513 -0.23933,0.12002 -0.32339,0.18399 -0.3374,0.33903 0.002,0.19217 0.16111,0.59587 0.44294,0.76446 4.6e-4,0.0187 0.0495,0 0.31568,-0.0855 0.44854,-0.096 0.80601,-0.27786 1.02736,-0.53587 0.12656,-0.13355 0.0997,-0.33319 -0.005,-0.68413 -0.0395,-0.18609 -0.0808,-0.22368 -0.29513,-0.32409 -0.21458,-0.12421 -0.4385,-0.16484 -0.82026,-0.1457 -0.40347,0.024 -0.80415,0.0906 -1.15695,0.22813 -0.35094,0.12678 -0.47679,0.18936 -0.50131,0.32268 -0.007,0.0362 0.002,0.1401 0.0745,0.2879 -0.0163,-0.0304 0.0416,0.005 0.1966,0.0495 0.11838,0.0367 0.24237,0.014 0.29467,-0.0488 -0.19707,0.23209 -0.22952,0.38363 -0.24283,0.37452 0.007,-0.0163 0.0635,0.0726 0.0637,0.0925 v 0 c -0.32852,-0.2524 -0.3904,-0.72359 -0.13776,-1.05235 v 0 c 0.25241,-0.32852 0.72359,-0.39039 1.05235,-0.13776 z" /><path
         inkscape:connector-curvature="0"
         id="path4666"
         style="fill:#000000;fill-opacity:1;fill-rule:nonzero;stroke:none;stroke-width:1"
         d="m 257.17691,585.89598 c 0.11582,0.45461 0.19287,1.04721 0.13263,1.57327 v 0 c -0.0528,0.41118 -0.42893,0.70164 -0.83987,0.64887 v 0 c -0.41118,-0.0528 -0.70188,-0.42869 -0.64911,-0.83987 v 0 c 0.0528,-0.41118 0.42869,-0.70164 0.83987,-0.64887 v 0 c 0.41118,0.0528 0.70164,0.42869 0.64911,0.83987 -0.0759,0.52816 -0.38783,1.18754 -0.88517,1.58774 v 0 c -0.33203,0.24821 -0.80251,0.18003 -1.05048,-0.152 v 0 c -0.2482,-0.33203 -0.18003,-0.80228 0.152,-1.05048 v 0 c 0.33203,-0.24797 0.80228,-0.18002 1.05025,0.152 v 0 c 0.2482,0.33203 0.18025,0.80252 -0.15177,1.05048 -0.64164,0.42029 -1.65616,0.67526 -2.52195,0.50295 v 0 c -0.40418,-0.0918 -0.65751,-0.49361 -0.56575,-0.89801 v 0 c 0.0918,-0.40418 0.49383,-0.65752 0.89801,-0.56576 v 0 c 0.40417,0.0918 0.65751,0.49384 0.56575,0.89801 v 0 c -0.0915,0.40418 -0.4936,0.65752 -0.89801,0.56576 -1.14201,-0.442 -2.03582,-1.67204 -2.36318,-3.00085 -0.17652,-0.76398 -0.24213,-1.66946 -0.1067,-2.38862 0.37896,-1.06589 1.35892,-1.75773 2.28659,-1.92024 0.48333,-0.10811 1.17727,-0.12212 1.73788,0.074 0.85762,0.59096 1.35589,1.54034 1.63141,2.31857 0.14803,0.3869 0.28042,0.82727 0.3423,1.17937 0.0233,0.34954 2.3e-4,0.64934 -0.0504,0.86229 -0.032,0.11628 -0.10718,0.29303 -0.1854,0.41258 -0.10157,0.12749 -0.41585,0.33063 -0.6456,0.37546 -0.90035,-0.52349 -1.24055,-1.29565 -1.4682,-2.10844 -0.44621,-1.87167 -0.69534,-5.0042 -0.94308,-7.81195 -0.0997,-1.06892 -0.18142,-2.04352 -0.23559,-2.86285 -0.0796,-0.9823 -0.13963,-1.89922 -0.0628,-2.36434 v 0 c 0.0789,-0.40697 0.47282,-0.67292 0.87957,-0.594 v 0 c 0.40697,0.0789 0.67292,0.47259 0.594,0.87956 v 0 c -0.0787,0.40698 -0.47259,0.67293 -0.87957,0.59401 v 0 c -0.40697,-0.0787 -0.67292,-0.47259 -0.594,-0.87957 0.0339,-0.15457 0.24143,-0.51415 0.62996,-0.72406 v 0 c 0.40254,-0.0985 0.80882,0.1478 0.90735,0.55058 v 0 c 0.0985,0.40254 -0.1478,0.80882 -0.55057,0.90735 v 0 c -0.40254,0.0985 -0.80882,-0.14804 -0.90735,-0.55058 v 0 c -0.0985,-0.40254 0.14803,-0.80881 0.55057,-0.90735 0.41445,-0.002 0.81489,0.25288 0.9244,0.40278 v 0 c 0.23372,0.34206 0.14593,0.80905 -0.19614,1.04301 v 0 c -0.3423,0.23396 -0.80928,0.14616 -1.04324,-0.19614 v 0 c -0.23372,-0.3423 -0.14593,-0.80928 0.19613,-1.04301 v 0 c 0.3423,-0.23396 0.80929,-0.14616 1.04325,0.19614 0.152,0.23279 0.33179,0.6414 0.54077,1.22817 v 0 c 0.13892,0.3904 -0.0649,0.81955 -0.45555,0.95872 v 0 c -0.3904,0.13892 -0.81956,-0.0652 -0.95848,-0.45555 -0.1952,-0.54894 -0.30938,-0.81162 -0.36612,-0.8847 0.005,-0.002 0.32245,0.19286 0.69254,0.20314 0.30284,-0.1889 0.46395,-0.45111 0.46605,-0.44294 -0.0493,0.1861 0.007,0.98464 0.0862,1.96881 0.0539,0.81606 0.13402,1.77104 0.23349,2.83693 0.2489,2.81872 0.48917,5.87116 0.90105,7.57145 0.19193,0.69394 0.40651,1.19665 0.42869,1.15532 -0.69254,-0.12749 -0.94191,0.0318 -0.99258,0.0866 -0.0187,0.0353 -0.0472,0.10087 -0.043,0.0787 0.021,-0.0616 0.0257,-0.14313 0.014,-0.31801 -0.0313,-0.16555 -0.12469,-0.47376 -0.26174,-0.8296 -0.24564,-0.70281 -0.52443,-1.29215 -0.90852,-1.5121 -0.10601,-0.0373 -0.37663,-0.0187 -0.77099,0.0752 -0.65752,0.0852 -0.98464,0.27715 -1.11703,0.82306 -0.0866,0.41281 -0.0367,1.02223 0.11721,1.669 0.23513,1.05655 0.71332,1.74279 1.31526,1.90366 0.40955,0.11231 0.87607,-0.021 1.23751,-0.28439 0.20314,-0.12422 0.23466,-0.2412 0.26735,-0.55711 0.0483,-0.31942 -0.001,-0.64024 -0.0971,-1.00776 v 0 c -0.10344,-0.40137 0.13823,-0.81045 0.5396,-0.91388 v 0 c 0.40137,-0.10344 0.81045,0.13822 0.91389,0.5396 z" /><path
         inkscape:connector-curvature="0"
         id="path4668"
         style="fill:#000000;fill-opacity:1;fill-rule:nonzero;stroke:none;stroke-width:1"
         d="m 258.11345,578.68667 c -0.005,0.1415 0.17792,0.43897 0.44877,0.90525 v 0 c 0.20828,0.35864 0.0864,0.81792 -0.27202,1.02597 v 0 c -0.35864,0.20827 -0.81792,0.0864 -1.02596,-0.27202 v 0 c -0.20827,-0.35865 -0.0864,-0.81793 0.27202,-1.02597 v 0 c 0.35864,-0.20827 0.81792,-0.0864 1.02596,0.27202 0.24143,0.44994 0.49921,0.93584 0.69885,1.33161 v 0 c 0.18656,0.36985 0.038,0.82119 -0.33203,1.00798 v 0 c -0.37009,0.1868 -0.82143,0.0381 -1.00822,-0.33202 v 0 c -0.18679,-0.37009 -0.0381,-0.82143 0.33203,-1.00822 v 0 c 0.37008,-0.18656 0.82142,-0.0378 1.00822,0.33226 0.11394,0.27739 0.18095,0.45414 0.22695,0.55407 v 0 c 0.17185,0.37733 0.005,0.82236 -0.37219,0.99398 v 0 c -0.37709,0.17185 -0.82212,0.005 -0.99397,-0.37195 v 0 c -0.17162,-0.37733 -0.005,-0.82236 0.37218,-0.99421 v 0 c 0.37733,-0.17162 0.82236,-0.005 0.99398,0.37218 0.0187,0.0439 0.005,0.0187 -0.0294,-0.0313 -0.0322,-0.0348 -0.17815,-0.14827 -0.30891,-0.20898 v 0 c 0.39273,0.13286 0.60358,0.55875 0.47072,0.95148 v 0 c -0.13262,0.3925 -0.55851,0.60334 -0.95125,0.47049 v 0 c -0.39273,-0.13263 -0.60334,-0.55852 -0.47072,-0.95125 v 0 c 0.13286,-0.39273 0.55875,-0.60334 0.95125,-0.47072 -0.32059,-0.0322 -0.73807,0.16251 -0.83333,0.27132 v 0 c 0.23629,-0.34043 0.70374,-0.42496 1.04441,-0.1889 v 0 c 0.34066,0.2363 0.42519,0.70398 0.18889,1.04465 v 0 c -0.23629,0.34043 -0.70398,0.42495 -1.04441,0.18866 v 0 c -0.34066,-0.2363 -0.42519,-0.70375 -0.18889,-1.04441 -0.11698,0.22415 -0.12375,-0.088 -0.13356,-0.46465 v 0 c -0.0117,-0.41445 0.31615,-0.75908 0.73036,-0.77006 v 0 c 0.41445,-0.0117 0.75909,0.31615 0.77006,0.73036 v 0 c 0.0117,0.41445 -0.31615,0.75932 -0.7306,0.77006 v 0 c -0.41421,0.0117 -0.75908,-0.31615 -0.76982,-0.73036 0.0163,-1.6641 -0.14547,-4.69506 0.20384,-5.91529 v 0 c 0.12211,-0.39601 0.54217,-0.61829 0.93817,-0.49617 v 0 c 0.39624,0.12188 0.61852,0.54193 0.4964,0.93817 -0.28416,0.8366 -0.12305,3.76202 -0.13776,5.46021 0.009,0.35514 0.0163,0.73013 -0.002,0.97133 -0.24027,0.4908 -0.67339,0.69347 -0.93724,0.67806 -0.22252,-0.0876 -0.38806,-0.21691 -0.44153,-0.27739 -0.0773,-0.10297 -0.14243,-0.22228 -0.17886,-0.30097 -0.0698,-0.15457 -0.14616,-0.35491 -0.22905,-0.56178 -0.16508,-0.32129 -0.41492,-0.79247 -0.64234,-1.21696 -0.25964,-0.44621 -0.54684,-0.96479 -0.6281,-1.45466 v 0 c -0.0502,-0.41141 0.2426,-0.7857 0.65402,-0.8359 v 0 c 0.41141,-0.0502 0.7857,0.2426 0.8359,0.65401 z" /><path
         inkscape:connector-curvature="0"
         id="path4670"
         style="fill:#000000;fill-opacity:1;fill-rule:nonzero;stroke:none;stroke-width:1"
         d="m 318.01938,526.41337 c -0.19357,0.22742 -0.54661,0.44574 -0.80905,0.51182 v 0 c -0.40581,0.0838 -0.80275,-0.17746 -0.88657,-0.58327 v 0 c -0.0836,-0.40604 0.17745,-0.80298 0.58349,-0.8868 v 0 c 0.40581,-0.0836 0.80298,0.17745 0.88657,0.5835 v 0 c 0.0838,0.40604 -0.17745,0.80298 -0.58349,0.88657 -0.27552,0.0423 -0.64444,-0.0117 -0.8714,-0.10694 v 0 c -0.37872,-0.16835 -0.54917,-0.61199 -0.38059,-0.99071 v 0 c 0.16858,-0.37872 0.61222,-0.54917 0.99094,-0.38059 v 0 c 0.37849,0.16858 0.54894,0.61221 0.38036,0.99094 v 0 c -0.16835,0.37872 -0.61198,0.54894 -0.99071,0.38036 -0.41561,-0.20267 -0.84664,-0.64701 -1.07196,-1.0757 v 0 c -0.18656,-0.37009 -0.0376,-0.82143 0.33249,-1.00775 v 0 c 0.37032,-0.18656 0.82166,-0.0376 1.00799,0.33249 v 0 c 0.18656,0.37032 0.0376,0.82142 -0.33249,1.00798 v 0 c -0.37032,0.18657 -0.82143,0.0376 -1.00799,-0.33272 -0.26571,-0.64094 -0.36261,-1.49762 -0.17839,-2.11077 0.33203,-0.59938 0.98978,-0.94471 1.48618,-0.98557 0.47002,-0.035 1.19455,0.19707 1.6118,0.65681 0.33389,0.64934 0.41748,1.38228 0.36565,1.93402 -0.14407,0.6909 -0.59821,1.31106 -1.06239,1.6188 -0.4873,0.28673 -1.24755,0.3918 -1.81284,0.18679 -0.7348,-0.46721 -1.17983,-1.40492 -1.30031,-2.21934 -0.0904,-0.46442 -0.096,-1.14972 0.1506,-1.67881 0.46955,-0.56131 1.17867,-0.86322 1.77734,-0.90431 0.63463,0.007 1.38858,0.26898 1.88358,0.71121 0.53984,0.68157 0.79808,1.60526 0.77893,2.30877 -0.12398,0.77099 -0.6428,1.48361 -1.23844,1.79953 -0.38363,0.13916 -0.78944,0.1924 -1.12123,0.17558 -0.31171,0.0329 -0.89824,-0.0558 -1.34398,-0.31755 -0.56529,-0.51882 -0.94821,-1.22466 -1.10886,-1.79952 v 0 c -0.1074,-0.40021 0.12983,-0.81185 0.53003,-0.91949 v 0 c 0.40044,-0.10764 0.81209,0.12982 0.91973,0.53003 v 0 c 0.1074,0.40043 -0.12982,0.81208 -0.53026,0.91949 v 0 c -0.40021,0.10764 -0.81186,-0.12959 -0.9195,-0.53003 -0.0854,-0.36191 -0.10974,-0.80858 -0.035,-1.15275 v 0 c 0.1004,-0.40231 0.50785,-0.64677 0.90992,-0.54637 v 0 c 0.40231,0.1004 0.64677,0.50784 0.54637,0.90992 v 0 c -0.1004,0.40207 -0.50784,0.64677 -0.90992,0.54637 v 0 c -0.4023,-0.1004 -0.64677,-0.50785 -0.54637,-0.90992 0.47002,-0.69184 1.07126,-0.8833 1.48945,-0.96479 v 0 c 0.40674,-0.0794 0.80088,0.18609 0.88003,0.59307 v 0 c 0.0794,0.40674 -0.18609,0.80088 -0.59307,0.88003 v 0 c -0.40674,0.0794 -0.80088,-0.18609 -0.88003,-0.59307 v 0 c -0.0794,-0.40674 0.18609,-0.80088 0.59307,-0.88003 0.41608,-0.081 0.75184,-0.12142 0.99514,-0.28323 v 0 c 0.35584,-0.21247 0.81652,-0.096 1.029,0.25988 v 0 c 0.21225,0.35608 0.096,0.81676 -0.26011,1.02923 -0.50878,0.28673 -1.08854,0.39134 -1.47707,0.46722 -0.38666,0.0752 -0.47959,0.0525 -0.41258,0.0724 0.0581,-0.12445 0.0691,-0.0187 0.12515,0.19964 0.096,0.37896 0.29117,0.75348 0.56272,0.98394 0.0511,0.0392 0.1506,0.0378 0.41258,0.009 0.30634,0.014 0.40908,9.3e-4 0.55921,-0.0591 0.21014,-0.0806 0.30728,-0.20781 0.33039,-0.55174 0.024,-0.37966 -0.092,-0.83193 -0.38199,-1.15602 -0.16438,-0.17208 -0.40441,-0.2454 -0.74414,-0.23186 -0.31125,0.005 -0.48193,0.067 -0.57136,0.22556 -0.0245,0.007 10e-4,0.22018 0.0806,0.61034 0.081,0.63977 0.2503,1.05235 0.47936,1.12053 0.0747,0.0595 0.14733,0.0376 0.35677,-0.11254 0.23256,-0.12889 0.33927,-0.25521 0.37476,-0.55851 0.0357,-0.32642 0.005,-0.6776 -0.13146,-0.90665 0.007,-0.021 -0.0413,-0.014 -0.24166,0.0233 -0.2468,0 -0.21528,-0.0455 -0.22135,0.0633 -0.0707,0.1401 -0.0163,0.52443 0.15457,0.90502 0.0885,0.1917 0.18376,0.29513 0.31965,0.33576 0.0516,0.0297 -0.0339,0.021 -0.0348,0.009 0.002,0.0117 -0.0955,0.0752 -0.0677,0.0245 v 0 c 0.25801,-0.32432 0.73013,-0.37803 1.05445,-0.12002 v 0 c 0.32455,0.25801 0.37826,0.73013 0.12025,1.05469 z" /><path
         inkscape:connector-curvature="0"
         id="path4672"
         style="fill:#000000;fill-opacity:1;fill-rule:nonzero;stroke:none;stroke-width:1"
         d="m 320.22868,512.25324 c 0.18843,0.63369 0.31288,1.19244 0.36308,1.66666 v 0 c 0.0423,0.41235 -0.25777,0.7808 -0.67012,0.82306 v 0 c -0.41235,0.0423 -0.7808,-0.25777 -0.82306,-0.67012 v 0 c -0.0423,-0.41235 0.25777,-0.7808 0.67012,-0.82306 v 0 c 0.41235,-0.0423 0.7808,0.25778 0.82306,0.67012 0.0418,0.26595 0.0537,0.65542 -0.014,0.98721 v 0 c -0.0929,0.40394 -0.4957,0.65611 -0.89964,0.56342 v 0 c -0.40395,-0.0929 -0.65612,-0.49571 -0.56319,-0.89965 v 0 c 0.0929,-0.40394 0.49571,-0.65611 0.89965,-0.56318 v 0 c 0.40394,0.0927 0.65611,0.49547 0.56318,0.89941 -0.32245,0.7285 -1.00705,1.26926 -1.68768,1.47077 v 0 c -0.39951,0.10997 -0.81279,-0.12492 -0.92253,-0.52466 v 0 c -0.10997,-0.39951 0.12492,-0.81255 0.52466,-0.92253 v 0 c 0.3995,-0.10997 0.81279,0.12492 0.92253,0.52466 v 0 c 0.10997,0.39974 -0.12492,0.81279 -0.52466,0.92253 -0.67456,0.17255 -1.60152,0.11231 -2.37088,-0.25871 -1.08294,-0.65238 -1.97254,-1.96811 -2.30153,-3.38727 -0.14804,-0.76539 -0.1903,-1.64005 -0.0778,-2.36154 0.24891,-0.83801 0.77216,-1.52261 1.32157,-1.92235 0.56225,-0.38689 1.32203,-0.62739 1.966,-0.6414 0.35491,-0.0346 0.88891,0.0234 1.30873,0.20431 0.74857,0.57812 1.22023,1.42056 1.48314,2.1654 0.19987,0.60942 0.31428,1.25502 0.3444,1.73088 0.0336,0.18399 0.064,0.44457 0.0686,0.63954 10e-4,0.106 -0.0117,0.26057 -0.0383,0.38199 -0.0187,0.0675 -0.0876,0.22112 -0.16485,0.33179 -0.10087,0.10577 -0.38666,0.26268 -0.55524,0.2928 -0.80835,-0.42892 -1.10349,-0.87559 -1.34795,-1.37223 -0.29724,-0.73013 -0.57977,-1.74325 -0.83871,-2.95158 -0.45974,-2.26884 -0.88517,-5.41795 -1.23891,-8.07229 -0.16508,-1.15485 -0.31871,-2.1988 -0.43663,-3.05338 -0.0824,-0.6365 -0.1436,-1.17259 -0.17558,-1.57187 -0.0304,-0.28322 -0.0511,-0.55781 -0.049,-0.74974 0.002,-0.10764 0.0306,-0.29443 0.0976,-0.46839 v 0 c 0.18329,-0.37171 0.63323,-0.52465 1.00495,-0.34136 v 0 c 0.37196,0.18329 0.52489,0.63323 0.3416,1.00495 v 0 c -0.18329,0.37172 -0.63323,0.52466 -1.00495,0.34137 v 0 c -0.37195,-0.18306 -0.52466,-0.633 -0.3416,-1.00496 0.0943,-0.14966 0.48356,-0.40837 0.77426,-0.43172 v 0 c 0.41235,0.0427 0.71215,0.41141 0.66966,0.82376 v 0 c -0.0427,0.41235 -0.41142,0.71192 -0.82376,0.66942 v 0 c -0.41235,-0.0425 -0.71192,-0.41118 -0.66943,-0.82353 v 0 c 0.0425,-0.41234 0.41118,-0.71215 0.82353,-0.66965 0.22742,0.0574 0.46839,0.21878 0.5361,0.2942 v 0 c 0.26361,0.31988 0.21808,0.7927 -0.1018,1.05632 v 0 c -0.31989,0.26384 -0.79271,0.21808 -1.05655,-0.10181 v 0 c -0.26362,-0.31965 -0.21785,-0.7927 0.1018,-1.05631 v 0 c 0.31988,-0.26362 0.79294,-0.21809 1.05655,0.1018 0.21995,0.35164 0.45811,0.95848 0.85668,1.87587 v 0 c 0.16508,0.38013 -0.009,0.82213 -0.38923,0.98744 v 0 c -0.38012,0.16508 -0.82236,-0.009 -0.98744,-0.38946 -0.40721,-0.93701 -0.63019,-1.50953 -0.69394,-1.59615 0.0971,0.12048 0.31545,0.26594 0.52373,0.32128 0.27155,-0.0252 0.6449,-0.27202 0.71448,-0.37475 0.0537,-0.14547 0.0684,-0.23093 0.0684,-0.1917 -0.002,0.10414 0.0117,0.30004 0.043,0.58443 0.031,0.38923 0.0885,0.89124 0.16881,1.51163 0.11605,0.84104 0.26922,1.88194 0.4357,3.04684 0.35444,2.66017 0.77356,5.76702 1.2214,7.97142 0.24843,1.16046 0.49757,2.05753 0.73853,2.645 0.18353,0.37359 0.34978,0.62786 0.42449,0.6818 -0.70795,-0.16485 -0.97249,-0.021 -1.05538,0.064 -0.0598,0.089 -0.11395,0.20898 -0.12235,0.23443 -0.005,0.0383 -0.009,0.0717 -0.009,0.0243 -7e-4,-0.10647 -0.021,-0.27085 -0.0579,-0.50014 -0.0297,-0.45461 -0.10997,-0.91902 -0.27552,-1.41286 -0.21224,-0.61595 -0.47796,-1.12356 -0.83473,-1.3727 -0.0346,-0.007 -0.17466,-0.014 -0.45671,0.0163 -0.4803,-0.002 -0.81793,0.10273 -1.17821,0.36915 -0.37312,0.25334 -0.59797,0.53166 -0.72686,1.0255 -0.0752,0.46441 -0.042,1.08877 0.085,1.72597 0.23957,1.13524 0.80205,1.97184 1.54572,2.37462 0.45391,0.24353 0.84384,0.2566 1.26086,0.13098 0.40838,-0.0976 0.58793,-0.23022 0.65985,-0.47889 -0.002,-0.007 -0.0117,-0.11207 -0.0483,-0.33833 -0.0425,-0.41958 -0.13753,-0.84174 -0.31358,-1.43107 v 0 c -0.11838,-0.39717 0.10787,-0.81512 0.50504,-0.9335 v 0 c 0.39717,-0.11838 0.81512,0.10764 0.9335,0.50481 z" /><path
         inkscape:connector-curvature="0"
         id="path4674"
         style="fill:#000000;fill-opacity:1;fill-rule:nonzero;stroke:none;stroke-width:1"
         d="m 321.27052,502.70667 c 0.0647,0.0829 0.59728,0.90128 1.09018,1.10956 v 0 c 0.37055,0.18609 0.51999,0.6372 0.33389,1.00752 v 0 c -0.18609,0.37055 -0.63696,0.51999 -1.00752,0.33389 v 0 c -0.37032,-0.18609 -0.51975,-0.6372 -0.33389,-1.00752 v 0 c 0.18609,-0.37031 0.6372,-0.51975 1.00752,-0.33389 0.0488,0.0187 0.046,0.0233 0.1018,10e-4 v 0 c 0.40698,-0.078 0.80018,0.18889 0.87816,0.59587 v 0 c 0.078,0.40721 -0.18866,0.80041 -0.59587,0.8784 v 0 c -0.40697,0.078 -0.80018,-0.1889 -0.87816,-0.59588 v 0 c -0.078,-0.40721 0.18866,-0.80041 0.59587,-0.87839 0.0525,0.001 -0.0233,0.0525 0.0117,-0.014 v 0 c 0.24726,-0.33273 0.71728,-0.40208 1.05001,-0.15481 v 0 c 0.33273,0.24727 0.40207,0.71729 0.1548,1.05002 v 0 c -0.24726,0.33272 -0.71728,0.40207 -1.05001,0.1548 v 0 c -0.33273,-0.24727 -0.40207,-0.71729 -0.1548,-1.05001 0.005,-0.0266 0.0425,-0.25171 0.0623,-0.5884 0.0507,-0.46956 0.0324,-0.90432 -0.0539,-1.28771 -0.0551,-0.19614 -0.15784,-0.32596 -0.37919,-0.5807 -0.26758,-0.3444 -0.56482,-0.67059 -0.87163,-1.00448 v 0 c -0.28042,-0.30541 -0.26034,-0.7801 0.0448,-1.06052 v 0 c 0.30541,-0.28043 0.7801,-0.26035 1.06053,0.0448 v 0 c 0.28042,0.30541 0.26034,0.7801 -0.0448,1.06052 v 0 c -0.3054,0.28042 -0.78009,0.26034 -1.06052,-0.0448 -0.44106,-0.45694 -0.95685,-1.04231 -1.07686,-1.65569 v 0 c -0.024,-0.41375 0.29186,-0.76866 0.70584,-0.79271 v 0 c 0.41375,-0.0241 0.76866,0.2921 0.79248,0.70585 v 0 c 0.0241,0.41375 -0.29187,0.76865 -0.70562,0.7927 v 0 c -0.41398,0.024 -0.76889,-0.2921 -0.7927,-0.70584 0.67923,-0.86159 1.1301,-0.91669 1.471,-0.9286 v 0 c 0.41421,-0.014 0.76142,0.31031 0.77566,0.72452 v 0 c 0.014,0.41422 -0.31031,0.76166 -0.72453,0.77567 v 0 c -0.41421,0.014 -0.76142,-0.31008 -0.77566,-0.72453 v 0 c -0.014,-0.41422 0.31031,-0.76142 0.72453,-0.77566 1.39418,-0.34791 4.10549,0.0292 4.68455,-0.60591 v 0 c 0.31965,-0.26385 0.79271,-0.21855 1.05655,0.1011 v 0 c 0.26385,0.31965 0.21855,0.7927 -0.1011,1.05655 -1.36476,0.96899 -4.25469,0.60148 -5.42916,0.9258 -0.45881,0.0327 -0.5842,0.031 -0.50294,0.0233 0.23116,-0.72617 0.54964,-0.40208 0.99071,0.0549 0.32222,0.35047 0.65868,0.72125 0.9398,1.0827 0.24073,0.27832 0.51789,0.68857 0.66872,1.15135 0.12586,0.58186 0.15481,1.23914 0.099,1.79322 -0.0252,0.39063 -0.11652,0.87256 -0.27669,1.23097 -0.29654,0.40184 -0.69908,0.64794 -1.00542,0.71986 -0.31078,0.0486 -0.71239,-0.002 -0.99094,-0.10227 -0.93771,-0.50575 -1.6655,-1.55763 -1.62791,-1.50649 v 0 c -0.26945,-0.31475 -0.23256,-0.78851 0.0824,-1.05796 v 0 c 0.31498,-0.26945 0.78874,-0.23256 1.05819,0.0824 z" /></g></g></svg>